<?xml version="1.0" encoding="UTF-8"?>
<svg id="Layer_1" data-name="Layer 1" xmlns="http://www.w3.org/2000/svg" viewBox="0 0 16 16">
  <rect width="16" height="16" rx="1.1" ry="1.1" style="fill: #3d5a8a;"/>
  <g>
    <g>
      <ellipse cx="8" cy="8.65" rx="5.88" ry="7.19" style="fill: #16132a;"/>
      <path d="M8,16c-3.33,0-6.03-3.3-6.03-7.35S4.67,1.3,8,1.3s6.03,3.3,6.03,7.35-2.71,7.35-6.03,7.35ZM8,1.62c-3.15,0-5.72,3.15-5.72,7.03s2.57,7.03,5.72,7.03,5.72-3.15,5.72-7.03S11.15,1.62,8,1.62Z" style="fill: #eee8e0;"/>
    </g>
    <path d="M8,0C6.73,0,5.71,1.03,5.71,2.3s1.02,2.31,2.29,2.31,2.28-1.04,2.28-2.31S9.26,0,8,0ZM8.15,4.22v-1.19c.33-.07.58-.37.58-.73,0-.41-.33-.74-.73-.74s-.74.33-.74.74c0,.36.25.65.58.73v1.19c-.98-.08-1.75-.91-1.75-1.92,0-1.06.85-1.92,1.91-1.92s1.91.86,1.91,1.92-.78,1.85-1.76,1.92Z" style="fill: #e85d5d;"/>
    <path d="M6.11,8.67c-.47,0-.86-.39-.86-.87s.39-.87.86-.87.86.39.86.87-.39.87-.86.87ZM6.11,7.19c-.34,0-.61.28-.61.61s.27.61.61.61.61-.28.61-.61-.27-.61-.61-.61Z" style="fill: #eee8e0;"/>
    <ellipse cx="9.68" cy="7.8" rx=".73" ry=".74" style="fill: #eee8e0;"/>
    <path d="M10.04,11.93h-4.08c-.09,0-.16-.07-.16-.16v-.94c0-.09.07-.16.16-.16h4.08c.09,0,.16.07.16.16v.94c0,.09-.07.16-.16.16ZM6.01,11.72h3.99v-.85h-3.99v.85Z" style="fill: #eee8e0;"/>
  </g>
</svg>