<?xml version="1.0" encoding="UTF-8"?>
<svg id="Layer_1" data-name="Layer 1" xmlns="http://www.w3.org/2000/svg" viewBox="0 0 31.83 41.82">
  <path d="M15.92,41.82C7.14,41.82,0,33.19,0,22.58S7.14,3.33,15.92,3.33s15.92,8.63,15.92,19.25-7.14,19.24-15.92,19.24ZM15.92,4.08C7.55,4.08.75,12.38.75,22.58s6.8,18.49,15.17,18.49,15.17-8.3,15.17-18.49S24.28,4.08,15.92,4.08Z" style="fill: #9dbef3;"/>
  <circle cx="15.92" cy="5.93" r="5.55" style="fill: none; stroke: #e85d5d; stroke-miterlimit: 10; stroke-width: .75px;"/>
  <circle cx="15.92" cy="5.93" r="1.94" style="fill: #e85d5d;"/>
  <line x1="15.92" y1="11.48" x2="15.92" y2="5.83" style="fill: none; stroke: #e85d5d; stroke-miterlimit: 10; stroke-width: .75px;"/>
  <circle cx="10.92" cy="20.36" r="1.94" style="fill: none; stroke: #9dbef3; stroke-miterlimit: 10; stroke-width: .75px;"/>
  <circle cx="20.36" cy="20.36" r="1.94" style="fill: #9dbef3;"/>
  <rect x="10.37" y="28.13" width="11.1" height="2.78" rx=".15" ry=".15" style="fill: none; stroke: #9dbef3; stroke-miterlimit: 10; stroke-width: .75px;"/>
</svg>