<?xml version="1.0" encoding="UTF-8"?>
<svg id="Layer_1" data-name="Layer 1" xmlns="http://www.w3.org/2000/svg" viewBox="0 0 245.16 47.93">
  <defs>
    <style>
      .cls-1 {
        fill: #b8cbff;
      }
    </style>
  </defs>
  <path class="cls-1" d="M0,18.73c0-.43.29-.72.72-.72-.43,0-.72-.29-.72-.72v-4.52c0-.43.29-.72.72-.72-.43,0-.72-.29-.72-.72v-4.52c0-.43.29-.72.72-.72h4.52c.43,0,.72.29.72.72v4.52c0,.43-.29.72-.72.72.43,0,.72.29.72.72v4.52c0,.43-.29.72-.72.72.43,0,.72.29.72.72v4.59c0,.43-.29.72-.72.72H.72c-.43,0-.72-.29-.72-.72v-4.59ZM0,36.66c0-.43.29-.72.72-.72h4.52c.43,0,.72.29.72.72v4.59c0,.43-.29.72-.72.72H.72c-.43,0-.72-.29-.72-.72v-4.59ZM11.91,5.38v-.07c0,.43-.29.72-.72.72h-4.52c-.43,0-.72-.29-.72-.72V.79c0-.43.29-.72.72-.72h4.52c.43,0,.72.29.72.72,0-.43.29-.72.72-.72h4.59c.43,0,.72.29.72.72,0-.43.29-.72.72-.72h4.52c.43,0,.72.29.72.72,0-.43.29-.72.72-.72h4.52c.43,0,.72.29.72.72v4.59c0,.43-.29.72-.72.72h-4.52c-.43,0-.72-.29-.72-.72,0,.43-.29.72-.72.72h-4.52c-.43,0-.72-.29-.72-.72,0,.43-.29.72-.72.72h-4.59c-.43,0-.72-.29-.72-.72ZM5.96,24.75c0-.43.29-.72.72-.72h4.52c.43,0,.72.29.72.72,0-.43.29-.72.72-.72h4.59c.43,0,.72.29.72.72,0-.43.29-.72.72-.72h4.52c.43,0,.72.29.72.72,0-.43.29-.72.72-.72h4.52c.43,0,.72.29.72.72v4.52c0,.43-.29.72-.72.72h-4.52c-.43,0-.72-.29-.72-.72,0,.43-.29.72-.72.72h-4.52c-.43,0-.72-.29-.72-.72,0,.43-.29.72-.72.72h-4.59c-.43,0-.72-.29-.72-.72,0,.43-.29.72-.72.72h-4.52c-.43,0-.72-.29-.72-.72v-4.52ZM5.96,42.69c0-.43.29-.72.72-.72h4.52c.43,0,.72.29.72.72,0-.43.29-.72.72-.72h4.59c.43,0,.72.29.72.72,0-.43.29-.72.72-.72h4.52c.43,0,.72.29.72.72,0-.43.29-.72.72-.72h4.52c.43,0,.72.29.72.72v4.52c0,.43-.29.72-.72.72h-4.52c-.43,0-.72-.29-.72-.72,0,.43-.29.72-.72.72h-4.52c-.43,0-.72-.29-.72-.72,0,.43-.29.72-.72.72h-4.59c-.43,0-.72-.29-.72-.72,0,.43-.29.72-.72.72h-4.52c-.43,0-.72-.29-.72-.72v-4.52ZM29.85,6.82c0-.43.29-.72.72-.72h4.59c.43,0,.72.29.72.72v4.52c0,.43-.29.72-.72.72h-4.59c-.43,0-.72-.29-.72-.72v-4.52ZM29.85,36.66c0-.43.29-.72.72-.72-.43,0-.72-.29-.72-.72v-4.52c0-.43.29-.72.72-.72h4.59c.43,0,.72.29.72.72v4.52c0,.43-.29.72-.72.72.43,0,.72.29.72.72v4.59c0,.43-.29.72-.72.72h-4.59c-.43,0-.72-.29-.72-.72v-4.59Z"/>
  <path class="cls-1" d="M42.48,18.01c1.65,0,2.94,1.29,2.94,3.01s-1.22,3.01-2.94,3.01-3.01-1.29-3.01-3.01,1.29-3.01,3.01-3.01ZM42.48,24.04c1.65,0,2.94,1.22,2.94,2.94s-1.22,3.01-2.94,3.01-3.01-1.29-3.01-3.01,1.29-2.94,3.01-2.94ZM42.48,29.99c1.65,0,2.94,1.22,2.94,2.94s-1.22,3.01-2.94,3.01-3.01-1.29-3.01-3.01,1.29-2.94,3.01-2.94ZM48.43,6.1c1.65,0,2.94,1.22,2.94,2.94s-1.22,3.01-2.94,3.01-3.01-1.29-3.01-3.01,1.29-2.94,3.01-2.94ZM48.43,12.05c1.65,0,2.94,1.22,2.94,2.94s-1.22,3.01-2.94,3.01-3.01-1.29-3.01-3.01,1.29-2.94,3.01-2.94ZM48.43,35.94c1.65,0,2.94,1.29,2.94,3.01s-1.22,3.01-2.94,3.01-3.01-1.29-3.01-3.01,1.29-3.01,3.01-3.01ZM51.37,3.08c0-1.72,1.29-3.01,3.01-3.01s3.01,1.29,3.01,3.01-1.29,3.01-3.01,3.01-3.01-1.29-3.01-3.01ZM54.38,41.97c1.72,0,3.01,1.22,3.01,2.94s-1.29,3.01-3.01,3.01-3.01-1.29-3.01-3.01,1.29-2.94,3.01-2.94ZM60.41.07c1.65,0,2.94,1.29,2.94,3.01s-1.22,3.01-2.94,3.01-3.01-1.29-3.01-3.01S58.69.07,60.41.07ZM60.41,41.97c1.65,0,2.94,1.22,2.94,2.94s-1.22,3.01-2.94,3.01-3.01-1.29-3.01-3.01,1.29-2.94,3.01-2.94ZM66.37.07c1.65,0,2.94,1.29,2.94,3.01s-1.22,3.01-2.94,3.01-3.01-1.29-3.01-3.01,1.29-3.01,3.01-3.01ZM66.37,41.97c1.65,0,2.94,1.22,2.94,2.94s-1.22,3.01-2.94,3.01-3.01-1.29-3.01-3.01,1.29-2.94,3.01-2.94ZM72.32,6.1c1.72,0,3.01,1.22,3.01,2.94s-1.29,3.01-3.01,3.01-3.01-1.29-3.01-3.01,1.29-2.94,3.01-2.94ZM72.32,12.05c1.72,0,3.01,1.22,3.01,2.94s-1.29,3.01-3.01,3.01-3.01-1.29-3.01-3.01,1.29-2.94,3.01-2.94ZM72.32,35.94c1.72,0,3.01,1.29,3.01,3.01s-1.29,3.01-3.01,3.01-3.01-1.29-3.01-3.01,1.29-3.01,3.01-3.01ZM78.35,18.01c1.65,0,2.94,1.29,2.94,3.01s-1.22,3.01-2.94,3.01-3.01-1.29-3.01-3.01,1.29-3.01,3.01-3.01ZM78.35,24.04c1.65,0,2.94,1.22,2.94,2.94s-1.22,3.01-2.94,3.01-3.01-1.29-3.01-3.01,1.29-2.94,3.01-2.94ZM78.35,29.99c1.65,0,2.94,1.22,2.94,2.94s-1.22,3.01-2.94,3.01-3.01-1.29-3.01-3.01,1.29-2.94,3.01-2.94Z"/>
  <path class="cls-1" d="M84.88.07h5.96v6.03h6.1v5.88h5.96v5.96h5.81v-5.96h6.03v-5.88h6.03V.07h6.03v47.86h-6.03V12.05h-5.96v5.96h-6.03v23.96h-5.96v-23.96h-5.96v-5.96h-6.03v35.87h-5.96V.07Z"/>
  <path class="cls-1" d="M130.37,44.27V3.73c0-2.08,1.29-3.66,3.01-3.66s2.94,1.29,2.94,3.01.93,3.01,2.3,3.01c2.08,0,3.66,1.58,3.66,3.66v4.52c0,2.08,1,3.66,2.37,3.66,2.08,0,3.66,1.29,3.66,3.01s1.58,3.08,3.66,3.08h4.59c2.08,0,3.66-1.58,3.66-3.66V3.73c0-2.08,1.29-3.66,3.01-3.66s3.01,1.58,3.01,3.66v40.54c0,2.08-1.29,3.66-3.01,3.66s-3.01-1.29-3.01-3.01-.93-2.94-2.3-2.94c-2.08,0-3.66-1.58-3.66-3.66v-4.66c0-2.08-.93-3.66-2.3-3.66-2.08,0-3.66-1.29-3.66-2.94s-1-2.87-2.44-2.87c-2.08,0-3.66-1.36-3.66-3.09s-1.29-3.01-2.94-3.01-2.94,1.58-2.94,3.66v22.53c0,2.08-1.22,3.66-2.94,3.66s-3.01-1.58-3.01-3.66Z"/>
  <path class="cls-1" d="M181.67,45.7v-3.66h-3.73c-1.22,0-2.22-1-2.22-2.22v-3.8h-3.66c-1.22,0-2.22-1-2.22-2.22V2.3c0-1.22,1-2.22,2.22-2.22h1.51c1.22,0,2.22,1,2.22,2.22v33.65h3.73c1.22,0,2.22,1,2.22,2.22v3.8h11.98v-3.8c0-1.22,1-2.22,2.22-2.22h3.73V2.3c0-1.22,1-2.22,2.22-2.22h1.58c1.22,0,2.22,1,2.22,2.22v31.5c0,1.22-1,2.22-2.22,2.22h-3.73v3.8c0,1.22-1,2.22-2.22,2.22h-3.73v3.66c0,1.22-1,2.22-2.22,2.22h-7.68c-1.22,0-2.22-1-2.22-2.22Z"/>
  <path class="cls-1" d="M209.29,6.39h5.96v1.15h-5.96v-1.15ZM209.29,8.54h5.96v1.08h-5.96v-1.08ZM209.29,10.62h5.96v1.15h-5.96v-1.15ZM209.29,12.77h5.96v1.15h-5.96v-1.15ZM209.29,14.92h5.96v1.08h-5.96v-1.08ZM209.29,17h5.96v1.15h-5.96v-1.15ZM209.29,19.16h5.96v1.15h-5.96v-1.15ZM209.29,21.24h5.96v1.15h-5.96v-1.15ZM209.29,36.16h5.96v1.15h-5.96v-1.15ZM209.29,38.31h5.96v1.08h-5.96v-1.08ZM209.29,40.39h5.96v1.15h-5.96v-1.15ZM215.17,0h24.03v1.15h-24.03V0ZM215.17,2.15h24.03v1.08h-24.03v-1.08ZM215.17,4.23h24.03v1.15h-24.03v-1.15ZM215.17,23.39h24.03v1.15h-24.03v-1.15ZM215.17,25.54h24.03v1.15h-24.03v-1.15ZM215.17,27.62h24.03v1.15h-24.03v-1.15ZM215.17,42.55h24.03v1.15h-24.03v-1.15ZM215.17,44.7h24.03v1.08h-24.03v-1.08ZM215.17,46.78h24.03v1.15h-24.03v-1.15ZM239.14,6.39h6.03v1.15h-6.03v-1.15ZM239.14,8.54h6.03v1.08h-6.03v-1.08ZM239.14,10.62h6.03v1.15h-6.03v-1.15ZM239.14,29.77h6.03v1.15h-6.03v-1.15ZM239.14,31.93h6.03v1.08h-6.03v-1.08ZM239.14,34.01h6.03v1.15h-6.03v-1.15ZM239.14,36.16h6.03v1.15h-6.03v-1.15ZM239.14,38.31h6.03v1.08h-6.03v-1.08ZM239.14,40.39h6.03v1.15h-6.03v-1.15Z"/>
</svg>