<?xml version="1.0" encoding="UTF-8"?>
<svg id="Layer_2" data-name="Layer 2" xmlns="http://www.w3.org/2000/svg" viewBox="0 0 534.53 52.38">
  <defs>
    <style>
      .cls-1 {
        fill: #659ffc;
      }
    </style>
  </defs>
  <g id="Layer_1-2" data-name="Layer 1">
    <g>
      <path class="cls-1" d="M35.08,52.38c-8.61,0-17.58-1.79-22.03-8.9-.57-.86-.65-.79-.65-.57v7.39c0,.22-.14.36-.36.29C3.73,48.43.07,41.33,0,34.51c0-1.36.14-1.51.36-1.51h7.46c.22,0,.43.14.57.29,1.22,1.36,2.37,2.65,3.8,4.3.14.14.21.14.21-.07v-4.09c0-.21.14-.36.36-.36h7.03c.22,0,.43.07.5.29,2.37,4.38,3.95,8.61,14.28,8.61,3.59,0,12.34-.5,12.34-5.67,0-4.45-6.31-4.52-14.42-4.95-6.89-.36-15.64-1-19.8-6.82-.14-.14-.22-.14-.22.07v5.24c0,.21-.14.36-1.72-.14C5.09,27.98,0,24.11,0,16.14S4.74,3.3,12.05,1.58c.21-.07.36.07.36.29v5.96c0,.22.07.22.22.07C18.3,1.43,23.75,0,32.86,0c6.82,0,15.5.79,20.45,6.24.5.5.57.5.57.29V1.43c0-.21.14-.36,1.51,0,3.87,1.08,8.25,3.8,10.48,7.89.43.79.5.72.5.5V2.15c0-.22.14-.29,1.22.14,6.67,2.37,10.83,8.39,10.83,16.43v.43h-9.11c-.22,0-.43-.14-.79-1-.36-.93-.86-1.72-1.58-2.44-.36-.43-.43-.43-.43-.22l-.29,3.44c0,.22-.14.36-.36.36h-7.89c-.22,0-.36-.14-.43-.36-.57-2.65-1.65-4.52-2.94-5.67-.57-.5-.72-.43-.72-.22v5.88c0,.22-.14.36-.36.36h-5.96c-.22,0-.36-.14-.43-.36-1.15-6.96-7.89-8.54-14.06-8.54-2.65,0-10.76.29-10.76,4.3,0,4.74,10.98,4.74,18.65,5.6,1.58.14,7.53.79,12.63,3.95.22.14.29.07.29-.14v-2.94c0-.22.14-.29.36-.29,4.95.65,8.25,2.08,11.84,5.6.14.14.29.14.29-.07v-4.66c0-.22.14-.36.36-.29,7.46,1.87,12.41,5.52,12.41,13.99s-5.24,13.7-12.41,15.57c-.22.07-.36-.07-.36-.29v-5.24c0-.22-.07-.22-.22-.07-3.01,3.3-7.39,6.1-11.91,6.24-.22,0-.36-.14-.36-.36v-3.52c0-.22-.14-.29-.29-.14-5.31,3.8-12.2,4.74-18.51,4.74ZM12.41,13.56c-.36.5-.5,1.15-.5,1.72s.14,1.15.5,1.51v-3.23ZM57.18,36.45c0-1.79-1.29-3.23-2.94-3.73-.22-.07-.36.07-.36.29v7.1c0,.21.14.29.36.21,1.58-.65,2.94-2.08,2.94-3.87ZM67.37,36.3c0-.65-.21-1.44-.65-1.94-.14-.14-.29-.07-.29.14v3.95c0,.21.07.21.22.07.43-.65.72-1.51.72-2.22Z"/>
      <path class="cls-1" d="M172.91,26.47c0,11.19-5.74,20.3-16.43,23.96-.22.07-.36,0-.36-.21v-5.09c0-.21-.14-.29-.36-.14-2.44,2.22-8.47,5.88-11.77,6.17-.21,0-.43-.14-.43-.36v-3.87c0-.21-.14-.29-.29-.14-6.17,4.16-12.56,5.6-19.95,5.6-5.74,0-16.65-1.79-20.88-6.24-.14-.14-.22-.14-.22.07v4.45c0,.21-.14.36-.36.29-12.05-3.16-18.44-12.84-18.44-25.04,0-11.12,7.1-22.17,18.44-24.47.22-.07.36.07.36.29v4.23c0,.29.14.36.29.14,5.88-4.59,13.56-6.1,20.81-6.1,8.47,0,14.21,1.87,19.95,5.52.22.14.29.07.29-.14V1.51c0-.21.22-.36.43-.29,4.38,1,8.61,3.08,11.77,6.24.22.14.36.14.36-.07V2.22c0-.22.14-.36.36-.29,11.05,2.8,16.43,13.99,16.43,24.54ZM102.24,13.42c0-.22-.14-.36-.36-.22-4.45,2.08-6.6,8.18-6.6,12.77,0,4.88,1.87,10.98,6.6,13.2.22.07.36,0,.36-.22V13.42ZM123.41,10.33c-9.97,0-17.72,5.24-17.72,15.86s7.53,15.78,17.58,15.78,17.43-4.88,17.43-15.5-7.03-16.14-17.29-16.14ZM151.03,26.33c0-5.17-2.08-11.12-7.03-13.56-.21-.07-.43,0-.43.21v26.4c0,.21.14.29.36.21,4.52-2.44,7.1-8.39,7.1-13.27ZM161.15,26.4c0-4.16-1.22-9.11-4.66-11.91-.14-.14-.29-.07-.29.14v23.1c0,.22.14.29.29.14,3.16-2.44,4.66-7.75,4.66-11.48Z"/>
      <path class="cls-1" d="M240.79,6.74c.14-.22.22-.14.22.07v14.71c0,.22.07.29.21.07l12.05-18.3c.14-.22.22-.14.22.07v14.49c0,.22.07.22.22.07l11.48-16.57c.14-.14.36-.29.57-.29h5.74c.22,0,.36.14.36.36v49.51c0,.22-.14.36-.36.36h-6.24c-.21,0-.36-.14-.36-.36v-30.21h-.07l-11.05,16.86c-.14.22-.21.14-.21-.07v-14.56c0-.22-.07-.29-.22-.07l-12.13,18.37c-.14.22-.21.14-.21-.07v-14.85c0-.22-.07-.22-.22-.07l-16.79,24.75c-.14.14-.36.29-.57.29h-6.6c-.22,0-.43-.14-.57-.29l-16.5-24.39c-.14-.14-.21-.14-.21.07v14.85c0,.21-.07.29-.22.07l-13.56-20.59c-.14-.21-.22-.14-.22.07v29.85c0,.22-.14.36-.36.36h-6.17c-.22,0-.36-.14-.36-.36V1.43c0-.21.14-.36.36-.36h5.67c.21,0,.43.14.57.29l14.06,20.73c.14.14.22.14.22-.07V7.17c0-.21.07-.21.21-.07l20.23,30.56c.14.21.29.21.43,0l20.38-30.92Z"/>
      <path class="cls-1" d="M300.92,50.94c0,.22-.14.36-.36.36h-5.17c-.21,0-.36-.14-.36-.36v-27.91c0-.22-.07-.5-.22-.65l-4.09-4.52c-.14-.14-.22-.14-.22.07v33c0,.22-.14.36-.36.36h-10.76c-.22,0-.36-.14-.36-.36V1.43c0-.21.14-.36.36-.36h10.33c.21,0,.43.14.57.29l4.81,4.88c.14.14.22.14.22-.07V1.43c0-.21.14-.36.36-.36h4.88c.21,0,.43.14.57.29l29.27,32.93c.14.14.21.14.21-.07V1.43c0-.21.14-.36.36-.36h5.38c.22,0,.36.14.36.36v27.69c0,.22.07.5.21.65l3.73,4.52c.14.14.21.14.21-.07V1.43c0-.21.14-.36.36-.36h7.68c.21,0,.36.14.36.36v30.42c0,.21.07.5.21.65l1.36,1.87c.14.14.22.14.22-.07V1.65c0-.43.07-.57.5-.57h10.47c.36,0,.5.14.5.5v49.29c0,.36-.07.43-.43.43h-10.33c-.21,0-.5-.07-.65-.22l-1.58-1.58c-.14-.14-.29-.07-.29.14v1.29c0,.22-.14.36-.36.36h-7.68c-.21,0-.43-.14-.57-.29l-3.59-4.02c-.14-.14-.21-.14-.21.07v3.87c0,.22-.14.36-.36.36h-5.81c-.21,0-.43-.14-.57-.29l-28.99-33.15c-.14-.14-.22-.14-.22.07v33Z"/>
      <path class="cls-1" d="M438.82,28.63V1.43c0-.21.14-.36.36-.36h10.69c.21,0,.36.14.36.36v19.16c0,6.6.72,13.63-1.87,19.87-1.72,4.16-5.88,8.25-10.26,9.69-.21.07-.36,0-.36-.21v-7.89c0-.21-.07-.29-.14-.07-1.94,3.52-7.82,8.9-12.05,9.18-.21,0-.36-.14-.36-.36v-5.31c0-.22-.07-.22-.22-.07-4.95,5.74-13.42,6.96-20.52,6.96-7.46,0-15.64-1.44-20.59-7.53-.14-.14-.22-.14-.22.07v5.81c0,.21-.14.36-.36.36-3.23-.36-8.9-4.81-10.47-7.17-3.09-4.45-3.8-9.69-3.8-14.92V1.43c0-.21.14-.36.36-.36h10.76c.22,0,.36.14.36.36v27.26c0,3.37.57,6.74,2.94,9.33.14.14.21.14.21-.07V1.43c0-.21.14-.36.36-.36h6.53c.22,0,.36.14.36.36v27.26c0,9.04,4.88,13.34,13.78,13.34s13.7-4.38,13.7-13.34V1.43c0-.21.14-.36.36-.36h6.1c.22,0,.36.14.36.36v36.88c0,.21.14.21.29.07,2.65-2.73,3.16-6.17,3.16-9.76V1.43c0-.21.14-.36.36-.36h8.39c.22,0,.36.14.36.36v33.15c0,.21.07.21.14,0,.79-1.79.93-4.09.93-5.96Z"/>
      <path class="cls-1" d="M490.48,52.38c-8.61,0-17.58-1.79-22.03-8.9-.57-.86-.65-.79-.65-.57v7.39c0,.22-.14.36-.36.29-8.32-2.15-11.98-9.25-12.05-16.07,0-1.36.14-1.51.36-1.51h7.46c.22,0,.43.14.57.29,1.22,1.36,2.37,2.65,3.8,4.3.14.14.21.14.21-.07v-4.09c0-.21.14-.36.36-.36h7.03c.22,0,.43.07.5.29,2.37,4.38,3.95,8.61,14.28,8.61,3.59,0,12.34-.5,12.34-5.67,0-4.45-6.31-4.52-14.42-4.95-6.89-.36-15.64-1-19.8-6.82-.14-.14-.21-.14-.21.07v5.24c0,.21-.14.36-1.72-.14-5.67-1.72-10.76-5.6-10.76-13.56s4.74-12.84,12.05-14.56c.21-.07.36.07.36.29v5.96c0,.22.07.22.22.07,5.67-6.46,11.12-7.89,20.23-7.89,6.82,0,15.5.79,20.45,6.24.5.5.57.5.57.29V1.43c0-.21.14-.36,1.51,0,3.87,1.08,8.25,3.8,10.47,7.89.43.79.5.72.5.5V2.15c0-.22.14-.29,1.22.14,6.67,2.37,10.83,8.39,10.83,16.43v.43h-9.11c-.22,0-.43-.14-.79-1-.36-.93-.86-1.72-1.58-2.44-.36-.43-.43-.43-.43-.22l-.29,3.44c0,.22-.14.36-.36.36h-7.89c-.22,0-.36-.14-.43-.36-.57-2.65-1.65-4.52-2.94-5.67-.57-.5-.72-.43-.72-.22v5.88c0,.22-.14.36-.36.36h-5.96c-.22,0-.36-.14-.43-.36-1.15-6.96-7.89-8.54-14.06-8.54-2.65,0-10.76.29-10.76,4.3,0,4.74,10.98,4.74,18.65,5.6,1.58.14,7.53.79,12.63,3.95.22.14.29.07.29-.14v-2.94c0-.22.14-.29.36-.29,4.95.65,8.25,2.08,11.84,5.6.14.14.29.14.29-.07v-4.66c0-.22.14-.36.36-.29,7.46,1.87,12.41,5.52,12.41,13.99s-5.24,13.7-12.41,15.57c-.21.07-.36-.07-.36-.29v-5.24c0-.22-.07-.22-.22-.07-3.01,3.3-7.39,6.1-11.91,6.24-.21,0-.36-.14-.36-.36v-3.52c0-.22-.14-.29-.29-.14-5.31,3.8-12.2,4.74-18.51,4.74ZM467.81,13.56c-.36.5-.5,1.15-.5,1.72s.14,1.15.5,1.51v-3.23ZM512.58,36.45c0-1.79-1.29-3.23-2.94-3.73-.21-.07-.36.07-.36.29v7.1c0,.21.14.29.36.21,1.58-.65,2.94-2.08,2.94-3.87ZM522.76,36.3c0-.65-.21-1.44-.65-1.94-.14-.14-.29-.07-.29.14v3.95c0,.21.07.21.22.07.43-.65.72-1.51.72-2.22Z"/>
    </g>
  </g>
</svg>