<?xml version="1.0" encoding="UTF-8"?>
<svg id="Layer_1" data-name="Layer 1" xmlns="http://www.w3.org/2000/svg" xmlns:xlink="http://www.w3.org/1999/xlink" viewBox="0 0 205.66 97.18">
  <defs>
    <style>
      .cls-1 {
        fill: #2c0f10;
      }

      .cls-2 {
        fill: #bf4344;
      }

      .cls-3 {
        fill: none;
      }

      .cls-4 {
        fill: #2f1011;
      }

      .cls-5 {
        fill: #e85153;
      }

      .cls-6 {
        fill: #e75152;
      }

      .cls-7 {
        fill: #872f30;
      }

      .cls-8 {
        fill: #cf484a;
      }

      .cls-9 {
        fill: #ec5254;
      }

      .cls-10 {
        fill: #973536;
      }

      .cls-11 {
        fill: #3b1515;
      }

      .cls-12 {
        fill: #c74547;
      }

      .cls-13 {
        fill: #e04e50;
      }

      .cls-14 {
        fill: #1b090a;
      }

      .cls-15 {
        fill: #591f20;
      }

      .cls-16 {
        fill: #fc585a;
      }

      .cls-17 {
        fill: #ae3d3e;
      }

      .cls-18 {
        fill: #070203;
      }

      .cls-19 {
        fill: #290e0f;
      }

      .cls-20 {
        fill: #fb585a;
      }

      .cls-21 {
        fill: #cd4749;
      }

      .cls-22 {
        fill: #561e1f;
      }

      .cls-23 {
        fill: #c14345;
      }

      .cls-24 {
        fill: #010000;
      }

      .cls-25 {
        fill: #7b2b2c;
      }

      .cls-26 {
        fill: #893031;
      }

      .cls-27 {
        fill: #db4c4e;
      }

      .cls-28 {
        fill: #1f0b0b;
      }

      .cls-29 {
        fill: #b74041;
      }

      .cls-30 {
        fill: #581f20;
      }

      .cls-31 {
        fill: #6c2627;
      }

      .cls-32 {
        fill: #ee5355;
      }

      .cls-33 {
        fill: #e24f51;
      }

      .cls-34 {
        fill: #76292a;
      }

      .cls-35 {
        fill: #822d2e;
      }

      .cls-36 {
        fill: #341213;
      }

      .cls-37 {
        fill: #270e0e;
      }

      .cls-38 {
        fill: #090303;
      }

      .cls-39 {
        fill: #d54a4c;
      }

      .cls-40 {
        fill: #722829;
      }

      .cls-41 {
        fill: #381414;
      }

      .cls-42 {
        fill: #d94c4d;
      }

      .cls-43 {
        fill: #5b2021;
      }

      .cls-44 {
        fill: #b03d3f;
      }

      .cls-45 {
        fill: #9f3739;
      }

      .cls-46 {
        fill: #802c2e;
      }

      .cls-47 {
        fill: #2a0f0f;
      }

      .cls-48 {
        fill: #fd595b;
      }

      .cls-49 {
        fill: #702728;
      }

      .cls-50 {
        fill: #150708;
      }

      .cls-51 {
        fill: #210c0c;
      }

      .cls-52 {
        fill: #a03839;
      }

      .cls-53 {
        fill: #4a1a1b;
      }

      .cls-54 {
        fill: #220c0c;
      }

      .cls-55 {
        fill: #6a2526;
      }

      .cls-56 {
        fill: #8a3031;
      }

      .cls-57 {
        fill: #f95759;
      }

      .cls-58 {
        fill: #7f2c2d;
      }

      .cls-59 {
        fill: #280e0e;
      }

      .cls-60 {
        fill: #bd4243;
      }

      .cls-61 {
        fill: #fa585a;
      }

      .cls-62 {
        fill: #682425;
      }

      .cls-63 {
        fill: #ea5254;
      }

      .cls-64 {
        fill: #030101;
      }

      .cls-65 {
        fill: #da4c4e;
      }

      .cls-66 {
        fill: #080303;
      }

      .cls-67 {
        fill: #3c1516;
      }

      .cls-68 {
        fill: #e44f51;
      }

      .cls-69 {
        fill: #732829;
      }

      .cls-70 {
        fill: #441818;
      }

      .cls-71 {
        fill: #0c0404;
      }

      .cls-72 {
        fill: #ac3c3d;
      }

      .cls-73 {
        fill: #4d1b1c;
      }

      .cls-74 {
        fill: #391414;
      }

      .cls-75 {
        fill: #df4e50;
      }

      .cls-76 {
        fill: #7d2b2c;
      }

      .cls-77 {
        fill: #ad3c3e;
      }

      .cls-78 {
        fill: #9d3738;
      }

      .cls-79 {
        fill: #d34a4b;
      }

      .cls-80 {
        fill: #8e3133;
      }

      .cls-81 {
        fill: #4b1a1b;
      }

      .cls-82 {
        fill: #a73a3c;
      }

      .cls-83 {
        fill: #511c1d;
      }

      .cls-84 {
        fill: #4f1c1c;
      }

      .cls-85 {
        fill: #c04345;
      }

      .cls-86 {
        fill: #de4d4f;
      }

      .cls-87 {
        fill: #050202;
      }

      .cls-88 {
        fill: #642324;
      }

      .cls-89 {
        fill: #421718;
      }

      .cls-90 {
        fill: #240d0d;
      }

      .cls-91 {
        fill: #8f3233;
      }

      .cls-92 {
        fill: #b84042;
      }

      .cls-93 {
        fill: #1a0909;
      }

      .cls-94 {
        fill: #531d1e;
      }

      .cls-95 {
        fill: #dc4d4f;
      }

      .cls-96 {
        fill: #6b2526;
      }

      .cls-97 {
        fill: #020101;
      }

      .cls-98 {
        fill: #6d2627;
      }

      .cls-99 {
        fill: #110606;
      }

      .cls-100 {
        fill: #c94648;
      }

      .cls-101 {
        fill: #230c0d;
      }

      .cls-102 {
        fill: #1c0a0a;
      }

      .cls-103 {
        fill: #c84647;
      }

      .cls-104 {
        fill: #a2383a;
      }

      .cls-105 {
        fill: #923334;
      }

      .cls-106 {
        fill: #a4393a;
      }

      .cls-107 {
        fill: #712829;
      }

      .cls-108 {
        fill: #190909;
      }

      .cls-109 {
        fill: #af3d3e;
      }

      .cls-110 {
        fill: #1d0a0a;
      }

      .cls-111 {
        fill: #a5393b;
      }

      .cls-112 {
        fill: #491a1a;
      }

      .cls-113 {
        fill: #be4244;
      }

      .cls-114 {
        fill: #74292a;
      }

      .cls-115 {
        fill: #b63f41;
      }

      .cls-116 {
        fill: #d84b4d;
      }

      .cls-117 {
        fill: #100606;
      }

      .cls-118 {
        fill: #e65052;
      }

      .cls-119 {
        fill: #8c3132;
      }

      .cls-120 {
        fill: #1e0b0b;
      }

      .cls-121 {
        fill: #d74b4d;
      }

      .cls-122 {
        fill: #130707;
      }

      .cls-123 {
        fill: #2e1010;
      }

      .cls-124 {
        fill: #c64547;
      }

      .cls-125 {
        fill: #0b0404;
      }

      .cls-126 {
        fill: #9a3637;
      }

      .cls-127 {
        fill: #672425;
      }

      .cls-128 {
        fill: #933334;
      }

      .cls-129 {
        fill: #9e3738;
      }

      .cls-130 {
        fill: #bc4143;
      }

      .cls-131 {
        fill: #a83a3c;
      }

      .cls-132 {
        fill: #632324;
      }

      .cls-133 {
        fill: #170808;
      }

      .cls-134 {
        fill: #040101;
      }

      .cls-135 {
        fill: #3a1415;
      }

      .cls-136 {
        fill: #e55052;
      }

      .cls-137 {
        fill: #351313;
      }

      .cls-138 {
        fill: #5f2122;
      }

      .cls-139 {
        fill: #411717;
      }

      .cls-140 {
        fill: #331212;
      }

      .cls-141 {
        fill: #250d0d;
      }

      .cls-142 {
        fill: #662425;
      }

      .cls-143 {
        fill: #e95153;
      }

      .cls-144 {
        fill: #200b0b;
      }

      .cls-145 {
        fill: #311112;
      }

      .cls-146 {
        fill: #5e2122;
      }

      .cls-147 {
        fill: #852e2f;
      }

      .cls-148 {
        fill: #140707;
      }

      .cls-149 {
        fill: #b94042;
      }

      .cls-150 {
        fill: #541d1e;
      }

      .cls-151 {
        fill: #913234;
      }

      .cls-152 {
        fill: #301111;
      }

      .cls-153 {
        fill: #a13839;
      }

      .cls-154 {
        fill: #b53f41;
      }

      .cls-155 {
        fill: #431718;
      }

      .cls-156 {
        fill: #7e2c2d;
      }

      .cls-157 {
        fill: #842e2f;
      }

      .cls-158 {
        fill: #260d0e;
      }

      .cls-159 {
        fill: #2d1010;
      }

      .cls-160 {
        fill: #bb4143;
      }

      .cls-161 {
        fill: #ab3c3d;
      }

      .cls-162 {
        fill: #b33e40;
      }

      .cls-163 {
        fill: #c34446;
      }

      .cls-164 {
        fill: #b23e3f;
      }

      .cls-165 {
        fill: #180809;
      }

      .cls-166 {
        fill: #120606;
      }

      .cls-167 {
        fill: #c54546;
      }

      .cls-168 {
        fill: #d1494b;
      }

      .cls-169 {
        fill: #0d0505;
      }

      .cls-170 {
        fill: #e14e50;
      }

      .cls-171 {
        fill: #903233;
      }

      .cls-172 {
        fill: #501c1d;
      }

      .cls-173 {
        fill: #943335;
      }

      .cls-174 {
        fill: #361313;
      }

      .cls-175 {
        fill: #371314;
      }

      .cls-176 {
        fill: #832e2f;
      }

      .cls-177 {
        fill: #551e1e;
      }

      .cls-178 {
        fill: #5c2021;
      }

      .cls-179 {
        fill: #461919;
      }

      .cls-180 {
        fill: #3f1617;
      }

      .cls-181 {
        fill: #aa3b3d;
      }

      .cls-182 {
        fill: #160808;
      }

      .cls-183 {
        fill: #060202;
      }

      .cls-184 {
        fill: #9c3638;
      }

      .cls-185 {
        fill: #d0484a;
      }

      .cls-186 {
        fill: #4e1b1c;
      }

      .cls-187 {
        fill: #d44a4c;
      }

      .cls-188 {
        fill: #7c2b2c;
      }

      .cls-189 {
        fill: #d2494b;
      }

      .cls-190 {
        fill: #ed5355;
      }

      .cls-191 {
        fill: #a3393a;
      }

      .cls-192 {
        fill: #7a2a2b;
      }

      .cls-193 {
        fill: #fe595b;
      }

      .cls-194 {
        fill: #2b0f0f;
      }

      .cls-195 {
        fill: #983536;
      }

      .cls-196 {
        fill: #c44446;
      }

      .cls-197 {
        fill: #953435;
      }

      .cls-198 {
        fill: #3e1616;
      }

      .cls-199 {
        fill: #a63a3b;
      }

      .cls-200 {
        fill: #8d3132;
      }

      .cls-201 {
        fill: #571e1f;
      }

      .cls-202 {
        fill: #e34f51;
      }

      .cls-203 {
        fill: #dd4d4f;
      }

      .cls-204 {
        fill: #401617;
      }

      .cls-205 {
        fill: #612223;
      }

      .cls-206 {
        fill: #963435;
      }

      .cls-207 {
        fill: #0e0505;
      }

      .cls-208 {
        fill: #75292a;
      }

      .cls-209 {
        fill: #882f30;
      }

      .cls-210 {
        fill: #cc4749;
      }

      .cls-211 {
        fill: #4c1b1b;
      }

      .cls-212 {
        fill: #5a2020;
      }

      .cls-213 {
        fill: #6e2727;
      }

      .cls-214 {
        fill: #652324;
      }

      .cls-215 {
        fill: #ba4142;
      }

      .cls-216 {
        fill: #eb5254;
      }

      .cls-217 {
        fill: #993537;
      }

      .cls-218 {
        fill: #792a2b;
      }

      .cls-219 {
        fill: #622223;
      }

      .cls-220 {
        fill: #812d2e;
      }

      .cls-221 {
        fill: #8b3031;
      }

      .cls-222 {
        fill: #6f2728;
      }

      .cls-223 {
        fill: #48191a;
      }

      .cls-224 {
        fill: #692526;
      }

      .cls-225 {
        fill: #321212;
      }

      .cls-226 {
        fill: #602222;
      }

      .cls-227 {
        fill: #a93b3c;
      }

      .cls-228 {
        fill: #782a2b;
      }

      .cls-229 {
        fill: #5d2121;
      }

      .cls-230 {
        fill: #ca4648;
      }

      .cls-231 {
        clip-path: url(#clippath);
      }

      .cls-232 {
        fill: #451819;
      }

      .cls-233 {
        fill: #c24445;
      }

      .cls-234 {
        fill: #cb4748;
      }

      .cls-235 {
        fill: #3d1516;
      }

      .cls-236 {
        fill: #d64b4c;
      }

      .cls-237 {
        fill: #9b3637;
      }

      .cls-238 {
        fill: #521d1d;
      }

      .cls-239 {
        fill: #ce484a;
      }

      .cls-240 {
        fill: #0f0505;
      }

      .cls-241 {
        fill: #0a0404;
      }

      .cls-242 {
        fill: #b13e3f;
      }

      .cls-243 {
        fill: #471919;
      }

      .cls-244 {
        fill: #b43f40;
      }

      .cls-245 {
        fill: #862f30;
      }
    </style>
    <clipPath id="clippath">
      <path class="cls-3" d="M183.16,57.49c.3,0,.53-.15.64-.38h.27c.31,0,.54-.15.65-.39h.24c.31,0,.55-.15.65-.4h.22c.32,0,.55-.16.66-.41h.2c.32,0,.56-.16.66-.42h.18c.32,0,.57-.16.67-.43h.16c.33,0,.57-.17.67-.44h.14c.33,0,.57-.17.67-.44h.12c.33,0,.57-.17.67-.45h.1c.33,0,.57-.17.67-.45h.08c.33,0,.58-.18.67-.45h.07c.33,0,.58-.18.67-.46h.05c.33,0,.58-.18.67-.46h.03c.33,0,.58-.18.67-.46h.01c.33,0,.58-.18.67-.46.33,0,.57-.18.66-.46.32,0,.55-.18.64-.45.31-.02.54-.18.62-.45.3-.02.52-.19.61-.45.29-.03.5-.19.59-.44.28-.03.48-.19.57-.43.26-.04.46-.19.54-.43.25-.04.44-.19.52-.42.24-.05.42-.19.5-.41.23-.05.4-.19.48-.4.22-.05.38-.19.46-.39.2-.06.36-.18.43-.37.19-.06.34-.18.41-.36.28-.09.46-.34.46-.67v-4.52c0-.43-.29-.72-.72-.72h-4.59c-.31,0-.55.15-.65.4-.19.06-.33.19-.4.37-.2.06-.35.19-.43.38-.21.06-.37.19-.44.39-.22.06-.39.19-.46.4-.23.05-.41.19-.48.41-.24.05-.43.19-.51.42-.26.04-.45.19-.53.43-.27.04-.46.19-.55.43-.28.03-.48.19-.57.44-.29.03-.5.19-.59.44-.3.02-.52.19-.61.45-.31.02-.54.18-.62.45-.32.01-.55.18-.64.45-.33,0-.57.18-.66.45h-.01c-.33,0-.58.18-.67.46h-.03c-.33,0-.58.18-.67.46h-.05c-.33,0-.58.18-.67.45h-.07c-.33,0-.58.17-.67.45h-.08c-.33,0-.57.17-.67.45h-.1c-.33,0-.57.17-.67.44h-.12c-.33,0-.57.17-.67.44h-.14c-.32,0-.57.16-.67.43h-.16c-.32,0-.56.16-.66.42h-.18c-.32,0-.56.16-.66.41h-.2c-.31,0-.55.15-.65.4h-.22c-.31,0-.54.15-.65.39h-.24c-.3,0-.53.15-.64.38h-.27c-.3,0-.52.14-.63.37h-.29c-.29,0-.51.14-.62.36h-.31c-.28,0-.49.13-.61.34h-.34c-.28,0-.48.13-.6.33h-.36c-.27,0-.47.12-.59.31h-.39c-.26,0-.46.11-.58.29h-.41c-.09,0-.18.02-.25.04v-.37c.18-.04.31-.14.41-.28h.39c.28,0,.48-.13.6-.33h.36c.28,0,.49-.13.61-.34h.34c.29,0,.51-.14.62-.36h.31c.3,0,.52-.14.63-.37h.29c.3,0,.53-.15.64-.38h.27c.31,0,.54-.15.65-.39h.24c.31,0,.55-.15.65-.4h.22c.32,0,.56-.16.66-.41h.2c.32,0,.56-.16.66-.42h.18c.33,0,.57-.16.67-.43h.16c.33,0,.57-.17.67-.44h.14c.33,0,.57-.17.67-.44h.12c.33,0,.57-.17.67-.45h.1c.33,0,.58-.17.67-.45h.08c.33,0,.58-.18.67-.45h.07c.33,0,.58-.18.67-.46h.05c.33,0,.58-.18.67-.46h.03c.33,0,.58-.18.67-.46h.01c.34,0,.58-.18.67-.46.33,0,.57-.18.66-.46.32-.01.55-.18.64-.45.31-.02.54-.18.62-.45.3-.02.52-.19.61-.45.29-.03.5-.19.59-.44.28-.03.48-.19.57-.43.26-.04.46-.19.54-.43.25-.04.44-.19.52-.42.24-.05.42-.19.5-.41.23-.05.4-.19.48-.4.22-.05.38-.19.46-.39.2-.06.36-.18.43-.37.19-.06.34-.18.41-.36.28-.09.46-.34.46-.67v-4.59c0-.43-.29-.72-.72-.72h-4.52c-.31,0-.55.15-.65.4-.04.01-.08.03-.11.05-.09-.28-.34-.46-.67-.46h-4.52c-.31,0-.55.15-.65.4-.04.01-.08.03-.11.05-.09-.28-.34-.46-.67-.46h-4.59c-.31,0-.54.15-.65.4-.04.01-.08.03-.11.05-.09-.28-.34-.46-.67-.46h-4.52c-.31,0-.55.15-.65.4-.19.06-.33.19-.4.37-.2.06-.35.19-.43.38-.21.06-.37.19-.44.39-.22.06-.39.19-.46.4-.23.05-.41.19-.48.41-.24.05-.43.19-.51.42-.26.04-.45.19-.53.43-.27.04-.47.19-.55.43-.28.03-.48.19-.57.44-.29.03-.5.19-.59.44-.3.02-.52.19-.61.45-.31.02-.54.18-.62.45-.32.01-.55.18-.64.45-.33,0-.57.18-.66.45h-.01c-.33,0-.58.18-.67.46h-.03c-.33,0-.58.18-.67.46h-.05c-.33,0-.58.18-.67.45h-.07c-.33,0-.58.17-.67.45h-.08c-.33,0-.57.17-.67.45h-.1c-.33,0-.57.17-.67.44h-.12c-.33,0-.57.17-.67.44h-.14c-.33,0-.57.16-.67.43h-.16c-.32,0-.56.16-.66.42h-.18c-.32,0-.56.16-.66.41h-.2c-.31,0-.55.15-.65.4h-.22c-.31,0-.54.15-.65.39h-.24c-.3,0-.53.15-.64.38h-.27c-.3,0-.52.14-.63.37h-.29c-.29,0-.51.14-.62.36h-.31c-.28,0-.49.13-.61.34h-.34c-.28,0-.48.13-.6.33h-.36c-.27,0-.47.12-.59.31h-.39c-.26,0-.46.11-.58.29h-.41c-.25,0-.45.11-.57.27h-.44c-.24,0-.43.1-.56.26h-.46c-.23,0-.42.09-.54.23h-.49c-.22,0-.41.08-.53.21h-.52c-.21,0-.39.07-.51.19h-.55c-.14,0-.25.04-.35.09h-.51c-.1-.06-.22-.1-.36-.1h-1.03c-.11-.06-.23-.1-.37-.1h-1.01c-.11-.06-.23-.11-.38-.11h-.99c-.11-.07-.24-.12-.39-.12h-.97c-.11-.07-.24-.12-.4-.12h-.95c-.11-.08-.25-.13-.41-.13h-.93c-.12-.08-.25-.13-.42-.13h-.91c-.12-.08-.26-.14-.43-.14h-.89c-.12-.09-.26-.15-.44-.15h-.87c-.12-.09-.27-.15-.45-.15h-.85c-.12-.1-.27-.16-.46-.16h-.83c-.12-.1-.28-.16-.47-.16h-.81c-.12-.11-.28-.17-.48-.17h-.79c-.12-.11-.29-.18-.49-.18h-.77c-.12-.11-.29-.18-.5-.18h-.75c-.12-.12-.3-.19-.51-.19h-.74c-.13-.12-.3-.19-.51-.19h-.72c-.13-.13-.31-.2-.52-.2h-.71c-.13-.13-.31-.2-.52-.2h-.69c-.13-.13-.31-.21-.53-.21h-.68c-.13-.13-.31-.21-.53-.21h-.67c-.13-.14-.31-.22-.54-.22h-.65c-.13-.14-.31-.22-.54-.22h-.64c-.13-.14-.31-.23-.54-.23h-.63c-.13-.15-.31-.23-.54-.23h-.61c-.13-.15-.31-.24-.55-.24h-.6c-.13-.15-.31-.24-.55-.24h-.59c-.13-.15-.31-.25-.55-.25h-.58c-.13-.16-.31-.25-.56-.25h-.56c-.13-.16-.32-.26-.56-.26h-.55c-.13-.16-.32-.26-.56-.26h-.54c-.13-.16-.32-.27-.57-.27h-.53c-.13-.17-.32-.27-.57-.27h-.52c-.12-.17-.32-.28-.57-.28h-.5c-.12-.17-.32-.28-.57-.28h-.49c-.12-.17-.32-.28-.58-.28h-.48c-.12-.18-.32-.29-.58-.29h-.47c-.12-.18-.32-.29-.58-.29h-.46c-.12-.18-.32-.29-.58-.29h-.44c-.12-.18-.32-.3-.59-.3h-.43c-.12-.18-.32-.3-.59-.3h-.42c-.12-.19-.32-.31-.59-.31h-.41c-.12-.19-.32-.31-.59-.31h-.4c-.12-.19-.32-.31-.59-.31h-.39c-.12-.19-.33-.32-.6-.32h-.38c-.12-.19-.33-.32-.6-.32h-.37c-.12-.2-.33-.32-.6-.32h-.35c-.12-.2-.33-.32-.6-.32h-.34c-.12-.2-.33-.33-.6-.33h-.33c-.12-.2-.33-.33-.61-.33h-.32c-.12-.2-.33-.33-.61-.33h-.31c-.12-.2-.33-.34-.61-.34h-.3c-.12-.21-.33-.34-.61-.34h-.29c-.12-.21-.33-.34-.61-.34h-.28c-.12-.21-.33-.34-.61-.34h-.27c-.12-.21-.33-.35-.62-.35h-.26c-.12-.21-.33-.35-.62-.35h-.25c-.12-.21-.33-.35-.62-.35h-.24c-.12-.22-.33-.35-.62-.35h-.23c-.12-.22-.33-.35-.62-.35h-.22c-.12-.22-.33-.36-.62-.36h-.21c-.12-.22-.33-.36-.62-.36h-.2c-.11-.22-.33-.36-.63-.36h-.19c-.11-.22-.33-.36-.63-.36h-.18c-.11-.22-.33-.36-.63-.36h-.17c-.11-.22-.33-.37-.63-.37h-.16c-.11-.22-.33-.37-.63-.37h-.15c-.11-.23-.33-.37-.63-.37h-.14c-.11-.23-.33-.37-.63-.37h-.13c-.11-.23-.33-.37-.63-.37h-.12c-.11-.23-.33-.37-.63-.37h-.12c-.11-.23-.33-.37-.63-.37h-.11c-.11-.23-.33-.37-.63-.37h-.1c-.11-.23-.34-.38-.64-.38h-.09c-.11-.23-.34-.38-.64-.38h-.08c-.11-.23-.34-.38-.64-.38h-.07c-.11-.23-.34-.38-.64-.38h-.06c-.11-.23-.34-.38-.64-.38h-.05c-.11-.23-.34-.38-.64-.38h-.05c-.11-.23-.34-.38-.64-.38h-.04c-.11-.23-.34-.38-.64-.38h-.03c-.11-.23-.34-.38-.64-.38h-.02c-.11-.23-.34-.38-.64-.38h-.01c-.11-.23-.34-.38-.64-.38h0c-.11-.23-.33-.38-.64-.38-.11-.23-.33-.37-.63-.38-.11-.23-.33-.37-.62-.38-.11-.23-.32-.37-.61-.38-.11-.23-.32-.37-.6-.38-.1-.22-.32-.36-.6-.38-.1-.22-.31-.36-.59-.38-.1-.22-.31-.36-.58-.38-.1-.22-.3-.35-.57-.38-.1-.22-.3-.35-.56-.38-.1-.22-.3-.35-.56-.38-.1-.21-.29-.35-.55-.37-.1-.21-.29-.34-.54-.37-.09-.21-.28-.34-.53-.37-.09-.21-.28-.34-.53-.37-.09-.21-.28-.33-.52-.37-.09-.2-.27-.33-.51-.37-.09-.2-.27-.33-.5-.37-.09-.2-.27-.33-.5-.37-.09-.2-.26-.32-.49-.36-.09-.19-.26-.32-.48-.36-.09-.19-.26-.32-.48-.36-.09-.19-.25-.31-.47-.36-.08-.19-.25-.31-.46-.36-.08-.19-.24-.31-.45-.36-.08-.18-.24-.3-.45-.35-.08-.18-.24-.3-.44-.35-.08-.18-.23-.3-.43-.35-.08-.18-.23-.3-.42-.35-.08-.17-.23-.29-.42-.35-.08-.17-.22-.29-.41-.34-.08-.17-.22-.29-.4-.34-.08-.17-.22-.28-.4-.34-.08-.16-.21-.28-.39-.34-.08-.16-.21-.28-.38-.33-.08-.16-.2-.27-.38-.33-.08-.15-.2-.27-.37-.33-.08-.15-.2-.27-.36-.33-.07-.14-.17-.24-.32-.31-.02-.02-.04-.04-.07-.06-.04-.06-.08-.12-.14-.17-.03-.04-.08-.07-.12-.1-.05-.09-.12-.17-.2-.22-.05-.09-.11-.16-.19-.22-.05-.09-.11-.16-.19-.21-.04-.08-.11-.15-.18-.21-.04-.08-.1-.15-.17-.2-.04-.08-.1-.14-.17-.2-.04-.08-.1-.14-.16-.19-.04-.07-.09-.14-.16-.19-.04-.07-.09-.13-.15-.18-.04-.07-.09-.13-.14-.18-.04-.07-.08-.12-.14-.17-.04-.06-.08-.12-.13-.17-.04-.06-.08-.11-.13-.16-.03-.06-.07-.11-.12-.15-.03-.05-.07-.11-.12-.15-.03-.05-.07-.1-.11-.14-.03-.05-.06-.1-.1-.14-.03-.05-.06-.09-.1-.13-.03-.04-.06-.09-.09-.12-.03-.04-.05-.08-.09-.12-.03-.04-.05-.08-.08-.11-.02-.04-.05-.07-.08-.1-.02-.03-.04-.07-.07-.1-.02-.03-.04-.06-.07-.09-.02-.03-.04-.06-.06-.08-.02-.03-.03-.05-.05-.08-.02-.02-.03-.05-.05-.07-.02-.02-.03-.04-.04-.06-.01-.02-.02-.04-.04-.06-.01-.01-.02-.03-.03-.05-.01-.01-.02-.03-.03-.04,0-.01-.01-.02-.02-.03,0,0-.01-.02-.02-.03,0,0,0-.01-.01-.02,0,0,0,0,0-.01-.13-.13-.31-.2-.52-.2h-.66s0,0-.01,0c-.05-.11-.13-.19-.24-.25-.05-.1-.13-.19-.23-.25-.05-.1-.13-.18-.22-.24-.05-.1-.12-.18-.22-.24-.05-.1-.12-.17-.21-.23-.05-.09-.12-.17-.2-.23-.05-.09-.12-.17-.2-.22-.05-.09-.11-.16-.19-.22-.05-.09-.11-.16-.19-.21-.04-.08-.11-.15-.18-.21-.04-.08-.1-.15-.17-.2-.04-.08-.1-.14-.17-.2-.04-.08-.1-.14-.16-.19-.04-.07-.09-.14-.16-.19-.04-.07-.09-.13-.15-.18-.04-.07-.09-.13-.14-.18-.04-.07-.08-.12-.14-.17-.04-.06-.08-.12-.13-.17-.04-.06-.08-.11-.13-.16-.03-.06-.07-.11-.12-.15-.03-.05-.07-.11-.12-.15-.03-.05-.07-.1-.11-.14-.03-.05-.06-.1-.1-.14-.03-.05-.06-.09-.1-.13-.03-.04-.06-.09-.09-.12-.03-.04-.05-.08-.09-.12-.03-.04-.05-.08-.08-.11-.02-.04-.05-.07-.08-.1-.02-.03-.04-.07-.07-.1-.02-.03-.04-.06-.07-.09-.02-.03-.04-.06-.06-.08-.02-.03-.03-.05-.05-.08-.02-.02-.03-.05-.05-.07-.02-.02-.03-.04-.04-.06-.01-.02-.02-.04-.04-.06-.01-.01-.02-.03-.03-.05-.01-.01-.02-.03-.03-.04,0-.01-.01-.02-.02-.03,0,0-.01-.02-.02-.03,0,0,0-.01-.01-.02,0,0,0,0,0-.01-.13-.13-.31-.2-.52-.2h-4.52c-.36,0-.61.21-.68.53,0,0-.01-.02-.02-.03-.02-.02-.03-.04-.04-.06-.01-.02-.02-.04-.04-.06-.01-.01-.02-.03-.03-.05-.01-.01-.02-.03-.03-.04,0-.01-.01-.02-.02-.03,0,0-.01-.02-.02-.03,0,0,0-.01-.01-.02,0,0,0,0,0-.01-.13-.13-.31-.2-.52-.2h-4.52c-.36,0-.61.21-.68.53,0,0-.01-.02-.02-.03-.02-.02-.03-.04-.04-.06-.01-.02-.02-.04-.04-.06-.01-.01-.02-.03-.03-.05-.01-.01-.02-.03-.03-.04,0-.01-.01-.02-.02-.03,0,0-.01-.02-.02-.03,0,0,0-.01-.01-.02,0,0,0,0,0-.01-.13-.13-.31-.2-.52-.2h-4.59c-.36,0-.61.21-.68.53,0,0-.01-.02-.02-.03-.02-.02-.03-.04-.04-.06-.01-.02-.02-.04-.04-.06-.01-.01-.02-.03-.03-.05-.01-.01-.02-.03-.03-.04,0-.01-.01-.02-.02-.03,0,0-.01-.02-.02-.03,0,0,0-.01-.01-.02,0,0,0,0,0-.01-.13-.13-.31-.2-.52-.2h-4.52c-.43,0-.72.29-.72.72v4.52c0,.22.07.39.2.52,0,0,0,0,0,0,0,0,0,0,0,.01,0,0,0,.01.01.02,0,0,.01.02.02.03,0,.01.01.03.02.04.01.01.02.03.03.04.01.02.02.04.04.05.02.02.02.04.04.06.02.02.03.05.05.06.02.02.03.05.05.07.02.03.03.06.06.08.02.03.04.06.06.09.02.03.04.07.07.09.02.03.04.07.08.1.03.04.05.08.08.11.03.04.05.08.09.11.03.04.06.09.09.12.03.05.06.09.1.13.03.05.06.1.1.13.03.05.07.1.11.14.03.05.07.1.12.15.03.06.07.11.12.15.04.06.08.11.13.16.04.06.08.12.13.16.04.07.08.12.14.17.04.07.09.13.15.18.04.07.09.13.15.18.04.07.09.14.16.19.04.08.1.14.16.19.04.08.1.15.17.2.04.08.1.15.18.2.05.08.11.15.18.21.05.09.11.16.19.21.05.09.11.16.2.22.05.09.12.17.2.23.05.1.12.17.21.23.05.1.12.18.22.24.05.1.13.18.22.24.05.1.13.18.23.25.05.11.13.19.23.25.05.11.14.19.24.25.06.11.14.2.25.26.06.11.14.2.25.26.06.12.15.21.26.27.06.12.15.21.27.27.06.12.15.21.27.28.06.12.16.22.28.28.06.13.16.22.29.29.06.13.16.23.29.29.07.13.17.23.3.29.07.13.17.24.31.3.07.13.17.24.31.3.07.14.18.24.32.3.07.14.18.25.33.31.07.14.18.25.33.31.07.14.19.25.34.31.07.14.19.26.35.31.07.15.19.26.35.32.08.15.2.26.36.32.08.15.2.27.37.32.08.16.2.27.37.33.08.16.21.27.38.33.08.16.21.28.39.33.08.16.21.28.39.34.08.17.22.28.4.34.08.17.22.29.41.34.08.17.23.29.42.34.08.17.23.29.42.35.08.18.23.3.43.35.08.18.24.3.44.35.08.18.24.3.45.35.08.18.24.31.45.35.09.19.25.31.46.36.09.19.25.31.47.36.09.19.26.32.47.36.09.19.26.32.48.36.09.2.26.32.49.36.09.2.27.32.5.37.09.2.27.33.5.37.04.09.1.17.18.23h-.74c-.09,0-.17.02-.25.04-.09-.08-.21-.13-.34-.15-.09-.2-.26-.32-.49-.37-.09-.19-.26-.32-.48-.36-.09-.19-.26-.32-.48-.36-.09-.19-.25-.31-.47-.36-.09-.19-.25-.31-.46-.36-.08-.19-.24-.31-.45-.36-.08-.18-.24-.3-.45-.35-.08-.18-.24-.3-.44-.35-.08-.18-.23-.3-.43-.35-.08-.18-.23-.3-.42-.35-.08-.17-.23-.29-.42-.35-.08-.17-.22-.29-.41-.34-.08-.17-.22-.29-.4-.34-.08-.17-.22-.28-.4-.34-.08-.16-.21-.28-.39-.34-.08-.16-.21-.28-.38-.33-.08-.16-.2-.27-.38-.33-.08-.15-.2-.27-.37-.33-.08-.15-.2-.27-.36-.33-.07-.15-.19-.26-.36-.32-.07-.15-.19-.26-.35-.32-.07-.14-.19-.26-.34-.32-.07-.14-.18-.25-.34-.31-.07-.14-.18-.25-.33-.31-.07-.14-.18-.24-.32-.3-.07-.13-.17-.24-.31-.3-.07-.13-.17-.23-.31-.29-.07-.13-.17-.23-.3-.29-.06-.13-.16-.23-.29-.29-.06-.13-.16-.22-.29-.28-.06-.12-.16-.22-.28-.28-.06-.12-.15-.21-.27-.28-.06-.12-.15-.21-.27-.27-.06-.12-.15-.21-.26-.27-.06-.11-.14-.2-.25-.26-.06-.11-.14-.2-.25-.26-.06-.11-.14-.19-.24-.26-.05-.11-.13-.19-.24-.25-.05-.1-.13-.19-.23-.25-.05-.1-.13-.18-.22-.24-.05-.1-.12-.18-.22-.24-.05-.1-.12-.17-.21-.23-.05-.09-.12-.17-.2-.23-.05-.09-.11-.17-.2-.22-.05-.09-.11-.16-.19-.22-.05-.09-.11-.16-.19-.21-.04-.08-.11-.15-.18-.21-.04-.08-.1-.15-.17-.2-.04-.08-.1-.14-.17-.2-.04-.08-.1-.14-.16-.19-.04-.07-.09-.14-.16-.19-.04-.07-.09-.13-.15-.18-.04-.07-.09-.13-.14-.18-.04-.07-.08-.12-.14-.17-.04-.06-.08-.12-.13-.17-.04-.06-.08-.11-.13-.16-.03-.06-.07-.11-.12-.15-.03-.05-.07-.11-.12-.15-.03-.05-.07-.1-.11-.14-.03-.05-.06-.1-.1-.14-.03-.05-.06-.09-.1-.13-.03-.04-.06-.09-.09-.12-.03-.04-.05-.08-.09-.12-.03-.04-.05-.08-.08-.11-.02-.04-.05-.07-.08-.1-.02-.03-.04-.07-.07-.1-.02-.03-.04-.06-.07-.09-.02-.03-.04-.06-.06-.08-.02-.03-.03-.05-.05-.08-.02-.02-.03-.05-.05-.07-.02-.02-.03-.04-.04-.06-.01-.02-.02-.04-.04-.06-.01-.02-.02-.03-.03-.05-.01-.01-.02-.03-.03-.04,0-.01-.01-.02-.02-.03,0,0-.01-.02-.02-.03,0,0,0-.01-.01-.02,0,0,0,0,0-.01-.13-.13-.31-.2-.52-.2H.72c-.43,0-.72.29-.72.72v4.52c0,.22.07.39.2.52,0,0,0,0,0,0,0,0,0,0,0,.01,0,0,0,.01.01.02,0,0,.01.02.02.03,0,.01.01.03.02.04.01.01.02.03.03.04.01.02.02.04.04.05.02.02.02.04.04.06,0,0,0,.02.01.02-.24.11-.39.34-.39.64v4.52c0,.22.07.39.2.52,0,0,0,0,0,0,0,0,0,0,0,.01,0,0,0,.01.01.02,0,0,.01.02.02.03,0,.01.01.03.02.04.01.01.02.03.03.04.01.02.02.04.04.05.02.02.02.04.04.06,0,0,0,.02.01.02-.24.11-.39.34-.39.64v4.59c0,.22.07.39.2.52,0,0,0,0,0,0,0,0,0,0,0,.01,0,0,0,.01.01.02,0,0,.01.02.02.03,0,.01.01.03.02.04.01.01.02.03.03.04.01.02.02.04.04.05.02.02.02.04.04.06.02.02.03.05.05.06.02.02.03.05.05.07.02.03.03.06.06.08.02.03.04.06.06.09.02.03.04.07.07.09.02.03.04.07.08.1.03.04.05.08.08.11.03.04.05.08.09.11.03.04.06.09.09.12.03.05.06.09.1.13.03.05.06.1.1.13.03.05.07.1.11.14.03.05.07.1.12.15.03.06.07.11.12.15.04.06.08.11.13.16.04.06.08.12.13.16.04.07.08.12.14.17.04.07.09.13.15.18.04.07.09.13.15.18.04.07.09.14.16.19.04.08.1.14.16.19.04.08.1.15.17.2.04.08.1.15.18.2.05.08.11.15.18.21.05.09.11.16.19.21.05.09.11.16.2.22.05.09.12.17.2.23.05.1.12.17.21.23.05.1.12.18.22.24.05.1.13.18.22.24.05.1.13.18.23.25.05.11.13.19.23.25.06.11.14.19.24.25.06.11.14.2.25.26.06.11.14.2.25.26.06.12.15.21.26.27.06.12.15.21.27.27.06.12.15.21.27.28.06.12.16.22.28.28.06.13.16.22.29.29.06.13.16.23.29.29.07.13.17.23.3.29.07.13.17.24.31.3.07.13.17.24.31.3.07.14.18.25.32.3.07.14.18.25.33.31.07.14.18.25.33.31.07.14.19.25.34.31.06.11.14.2.25.26.04.06.09.1.15.14.02.03.03.06.06.08.04.06.1.11.16.16.05.1.13.18.22.24.05.1.13.18.23.25.05.11.13.19.23.25.06.11.14.19.24.25.06.11.14.2.25.26.06.11.14.2.25.26.06.12.15.21.26.27.06.12.15.21.27.27.06.12.15.21.27.28.06.12.16.22.28.28.06.13.16.22.29.29.06.13.16.23.29.29.07.13.17.23.3.29.07.13.17.24.31.3.07.13.17.24.31.3.07.14.18.25.32.3.07.14.18.25.33.31.07.14.18.25.33.31.07.14.19.25.34.31.07.14.19.26.35.31.07.15.19.26.35.32.08.15.2.26.36.32.08.15.2.27.37.32.08.16.2.27.37.33.08.16.21.27.38.33.08.16.21.28.39.33.03.05.06.1.09.14-.05.07-.08.15-.1.24,0,0-.01-.02-.02-.03-.02-.02-.03-.04-.04-.06-.01-.02-.02-.04-.04-.06-.01-.02-.02-.03-.03-.05-.01-.01-.02-.03-.03-.04,0-.01-.01-.02-.02-.03,0,0-.01-.02-.02-.03,0,0,0-.01-.01-.02,0,0,0,0,0-.01-.13-.13-.31-.2-.52-.2h-4.59c-.36,0-.61.21-.68.53,0,0-.01-.02-.02-.03-.02-.02-.03-.04-.04-.06-.01-.02-.02-.04-.04-.06-.01-.02-.02-.03-.03-.05-.01-.01-.02-.03-.03-.04,0-.01-.01-.02-.02-.03,0,0-.01-.02-.02-.03,0,0,0-.01-.01-.02,0,0,0,0,0-.01-.13-.13-.31-.2-.52-.2h-.59s0,0-.01,0c-.05-.11-.13-.19-.24-.25-.05-.1-.13-.19-.23-.25-.05-.1-.13-.18-.22-.24-.05-.1-.12-.18-.22-.24-.05-.1-.12-.17-.21-.23-.05-.09-.12-.17-.2-.23-.05-.09-.11-.17-.2-.22-.05-.09-.11-.16-.19-.22-.05-.09-.11-.16-.19-.21-.04-.08-.11-.15-.18-.21-.04-.08-.1-.15-.17-.2-.04-.08-.1-.14-.17-.2-.04-.08-.1-.14-.16-.19-.04-.07-.09-.14-.16-.19-.04-.07-.09-.13-.15-.18-.04-.07-.09-.13-.14-.18-.04-.07-.08-.12-.14-.17-.04-.06-.08-.12-.13-.17-.04-.06-.08-.11-.13-.16-.03-.06-.07-.11-.12-.15-.03-.05-.07-.11-.12-.15-.03-.05-.07-.1-.11-.14-.03-.05-.06-.1-.1-.14-.03-.05-.06-.09-.1-.13-.03-.04-.06-.09-.09-.12-.03-.04-.05-.08-.09-.12-.03-.04-.05-.08-.08-.11-.02-.04-.05-.07-.08-.1-.02-.03-.04-.07-.07-.1-.02-.03-.04-.06-.07-.09-.02-.03-.04-.06-.06-.08-.02-.03-.03-.05-.05-.08-.02-.02-.03-.05-.05-.07-.02-.02-.03-.04-.04-.06-.01-.02-.02-.04-.04-.06-.01-.02-.02-.03-.03-.05-.01-.01-.02-.03-.03-.04,0-.01-.01-.02-.02-.03,0,0-.01-.02-.02-.03,0,0,0-.01-.01-.02,0,0,0,0,0-.01-.13-.13-.31-.2-.52-.2H.72c-.43,0-.72.29-.72.72v4.59c0,.22.07.39.2.52,0,0,0,0,0,0,0,0,0,0,0,.01,0,0,0,.01.01.02,0,0,.01.02.02.03,0,.01.01.03.02.04.01.01.02.03.03.04.01.02.02.04.04.05.02.02.02.04.04.06.02.02.03.05.05.06.02.02.03.05.05.07.02.03.03.06.06.08.02.03.04.06.06.09.02.03.04.07.07.09.02.03.04.07.08.1.03.04.05.08.08.11.03.04.05.08.09.11.03.04.06.09.09.12.03.05.06.09.1.13.03.05.06.1.1.13.03.05.07.1.11.14.03.05.07.1.12.15.03.06.07.11.12.15.04.06.08.11.13.16.04.06.08.12.13.16.04.07.08.12.14.17.04.07.09.13.15.18.04.07.09.13.15.18.04.07.09.14.16.19.04.08.1.14.16.19.04.08.1.15.17.2.04.08.1.15.18.2.05.08.11.15.18.21.05.09.11.16.19.21.05.09.11.16.2.22.05.09.12.17.2.23.05.1.12.17.21.23.05.1.12.18.22.24.05.1.13.18.22.24.05.1.13.18.23.25.05.11.13.19.23.25.05.11.14.19.24.25.06.11.14.2.25.26.06.11.14.2.25.26.06.12.15.21.26.27.06.12.15.21.27.27.06.12.15.21.27.28.06.12.16.22.28.28.06.13.16.22.29.29.06.13.16.23.29.29.07.13.17.23.3.29.07.13.17.24.31.3.07.13.17.24.31.3.07.14.18.24.32.3.07.14.18.25.33.31.07.14.18.25.33.31.07.14.19.25.34.31.06.11.14.2.25.26.04.06.09.1.15.14.02.03.03.06.06.08.04.06.1.11.16.16.05.1.13.18.22.24.05.1.13.18.23.25.05.11.13.19.23.25.05.11.14.19.24.25.06.11.14.2.25.26.06.11.14.2.25.26.06.12.15.21.26.27.06.12.15.21.27.27.06.12.15.21.27.28.06.12.16.22.28.28.06.13.16.22.29.29.06.13.16.23.29.29.07.13.17.23.3.29.07.13.17.24.31.3.07.13.17.24.31.3.07.14.18.24.32.3.07.14.18.25.33.31.07.14.18.25.33.31.07.14.19.25.34.31.07.14.19.26.35.31.07.15.19.26.35.32.08.15.2.26.36.32.08.15.2.27.37.32.08.16.2.27.37.33.08.16.21.27.38.33.08.16.21.28.39.33.08.16.21.28.39.34.08.17.22.28.4.34.08.17.22.29.41.34.08.17.23.29.42.34.08.17.23.29.42.35.08.18.23.3.43.35.08.18.24.3.44.35.08.18.24.3.45.35.08.18.24.31.45.35.09.19.25.31.46.36.09.19.25.31.47.36.09.19.26.32.47.36.09.19.26.32.48.36.09.2.26.32.49.36.09.2.27.32.5.37.09.2.27.33.5.37.09.2.27.33.51.37.09.21.28.33.52.37.09.21.28.34.53.37.09.21.29.34.53.37.1.21.29.34.54.37.1.21.29.35.55.38.1.22.3.35.56.38.1.22.3.35.57.38.1.22.3.36.57.38.1.22.31.36.58.38.1.22.31.36.59.38.1.23.32.37.6.38.1.23.32.37.6.38.11.23.32.37.61.38.11.23.33.37.62.38.11.23.33.38.63.38.11.23.33.38.64.38.11.23.34.38.64.38h0c.11.23.34.38.64.38h.01c.11.23.34.38.64.38h.02c.11.23.34.38.64.38h.03c.11.23.34.38.64.38h.04c.11.23.34.38.64.38h.05c.11.23.34.38.64.38h.05c.11.23.34.38.64.38h.06c.11.23.34.38.64.38h.07c.11.23.34.38.64.38h.08c.11.23.34.38.64.38h.09c.11.23.34.38.64.38h.1c.11.23.34.38.64.38h.11c.11.23.33.37.63.37h.12c.11.23.33.37.63.37h.12c.11.23.33.37.63.37h.13c.11.23.33.37.63.37h.14c.11.23.33.37.63.37h.15c.11.23.33.37.63.37h.16c.11.22.33.37.63.37h.17c.11.22.33.37.63.37h.18c.11.22.33.36.63.36h.19c.11.22.33.36.63.36h.2c.11.22.33.36.63.36h.21c.12.22.33.36.62.36h.22c.12.22.33.36.62.36h.23c.12.22.33.35.62.35h.24c.12.22.33.35.62.35h.25c.12.21.33.35.62.35h.26c.12.21.33.35.62.35h.27c.12.21.33.35.62.35h.28c.12.21.33.34.61.34h.29c.12.21.33.34.61.34h.3c.12.21.33.34.61.34h.31c.12.2.33.34.61.34h.32c.12.2.33.33.61.33h.33c.12.2.33.33.61.33h.34c.12.2.33.33.6.33h.35c.12.2.33.32.6.32h.37c.12.2.33.32.6.32h.38c.12.19.33.32.6.32h.39c.12.19.32.32.6.32h.4c.12.19.32.31.59.31h.41c.12.19.32.31.59.31h.42c.12.19.32.31.59.31h.43c.12.18.32.3.59.3h.44c.12.18.32.3.59.3h.46c.12.18.32.29.58.29h.47c.12.18.32.29.58.29h.48c.12.18.32.29.58.29h.49c.12.17.32.28.58.28h.5c.12.17.32.28.57.28h.52c.12.17.32.28.57.28h.53c.13.17.32.27.57.27h.54c.13.16.32.27.57.27h.55c.13.16.32.26.56.26h.56c.13.16.32.26.56.26h.58c.13.16.31.25.56.25h.59c.13.15.31.25.55.25h.6c.13.15.31.24.55.24h.61c.13.15.31.24.55.24h.63c.13.15.31.23.54.23h.64c.13.14.31.23.54.23h.65c.13.14.31.22.54.22h.67c.13.14.31.22.53.22h.68c.13.13.31.21.53.21h.69c.13.13.31.21.53.21h.71c.13.13.31.2.52.2h.72c.13.13.31.2.52.2h.74c.13.12.3.19.51.19h.75c.12.12.3.19.51.19h.77c.12.11.29.18.5.18h.79c.12.11.29.18.49.18h.81c.12.11.28.17.48.17h.83c.12.1.28.16.47.16h.85c.12.1.27.16.46.16h.87c.12.09.27.15.45.15h.89c.12.09.26.15.44.15h.91c.12.08.26.14.43.14h.93c.12.08.25.13.42.13h.95c.11.08.25.13.41.13h.97c.11.07.24.12.4.12h.99c.11.07.24.12.39.12h1.01c.11.06.23.11.38.11h1.03c.11.06.23.1.37.1h1.05c.1.06.22.1.36.1h1.07c.1.05.22.09.35.09h1.09c.1.05.21.08.34.08h1.11c.1.04.21.07.33.07h1.13c.09.04.2.07.32.07h1.16c.09.04.19.06.31.06h1.18c.09.03.19.05.3.05h1.22c.08.03.17.05.26.05h1.27c.07.02.14.04.22.04h1.33c.06.01.11.03.18.03h1.23s.07.02.1.02h4.52s.04,0,.07-.01h1.08s.02,0,.04,0h.15s.06.02.1.02h4.59s.04,0,.07-.01h1.08s.02,0,.04,0h.15s.07.02.1.02h4.52s.04,0,.07-.01h1.08s.02,0,.04,0h.15s.07.02.1.02h4.52s.04,0,.07-.01h1.08c.08,0,.16-.02.23-.04h.9c.12,0,.22-.03.32-.07h.8c.14,0,.26-.04.36-.09h.75c.16,0,.29-.05.4-.12h.7c.18,0,.32-.06.44-.15h.65c.19,0,.35-.07.48-.17h.6c.21,0,.39-.07.51-.19h.55c.22,0,.41-.08.53-.21h.52c.23,0,.42-.09.54-.23h.49c.24,0,.43-.1.56-.26h.46c.25,0,.44-.11.57-.27h.44c.26,0,.46-.11.58-.29h.41c.27,0,.47-.12.59-.31h.39c.28,0,.48-.13.6-.33h.36c.28,0,.49-.13.61-.34h.34c.29,0,.51-.14.62-.36h.31c.3,0,.52-.14.63-.37h.29c.3,0,.53-.15.64-.38h.27c.31,0,.54-.15.65-.39h.24c.31,0,.55-.15.65-.4h.22c.32,0,.56-.16.66-.41h.2c.32,0,.56-.16.66-.42h.18c.32,0,.57-.16.67-.43h.16c.33,0,.57-.17.67-.44h.14c.33,0,.57-.17.67-.44h.12c.33,0,.57-.17.67-.45h.1c.33,0,.58-.17.67-.45h.08c.33,0,.58-.18.67-.45h.07c.33,0,.58-.18.67-.46h.05c.33,0,.58-.18.67-.46h.03c.33,0,.58-.18.67-.46h.01c.34,0,.58-.18.67-.46.33,0,.57-.18.66-.46.32-.01.55-.18.64-.45.31-.02.54-.18.62-.45.3-.02.52-.19.61-.45.29-.03.5-.19.59-.44.28-.03.48-.19.57-.43.26-.04.46-.19.54-.43.25-.04.44-.19.52-.42.24-.05.42-.19.5-.41.23-.05.4-.19.48-.4.22-.05.38-.19.46-.39.2-.06.36-.18.43-.37.19-.06.34-.18.41-.36.28-.09.46-.34.46-.67v-.78c.22-.06.38-.21.45-.42.3-.02.52-.19.61-.45.29-.03.5-.19.59-.44.28-.03.48-.19.57-.43.26-.04.46-.19.54-.43.25-.04.44-.19.52-.42.24-.05.42-.19.5-.41.23-.05.4-.19.48-.4.22-.05.38-.19.46-.39.2-.06.36-.18.43-.37.19-.06.34-.18.41-.36.28-.09.46-.34.46-.67v-4.59c0-.36-.2-.6-.51-.68.02-.03.04-.05.05-.08.28-.09.46-.34.46-.67v-4.52c0-.43-.29-.72-.72-.72h-4.59c-.31,0-.55.15-.65.4-.19.06-.33.19-.4.37-.2.06-.35.19-.43.38-.21.06-.37.19-.44.39-.22.06-.39.19-.46.4-.23.05-.41.19-.48.41-.24.05-.43.19-.51.42-.26.04-.45.19-.53.43-.27.04-.47.19-.55.43-.28.03-.48.19-.57.44-.29.03-.5.19-.59.44-.3.02-.52.19-.61.45-.31.02-.54.18-.62.45-.32.01-.55.18-.64.45-.33,0-.57.18-.66.45h-.01c-.33,0-.58.18-.67.46h-.03c-.33,0-.58.18-.67.46h-.05c-.33,0-.58.18-.67.45h-.07c-.33,0-.58.17-.67.45h-.08c-.33,0-.57.17-.67.45h-.1c-.33,0-.57.17-.67.44h-.12c-.33,0-.57.17-.67.44h-.14c-.33,0-.57.16-.67.43h-.16c-.32,0-.56.16-.66.42h-.18c-.32,0-.56.16-.66.41h-.2c-.31,0-.55.15-.65.4h-.22c-.31,0-.54.15-.65.39h-.24c-.3,0-.53.15-.64.38h-.27c-.18,0-.33.06-.45.15-.09-.04-.19-.06-.31-.06h-1.02s.04-.06.06-.09h.29c.3,0,.53-.15.64-.38h.27c.31,0,.54-.15.65-.39h.24c.31,0,.55-.15.65-.4h.22c.32,0,.56-.16.66-.41h.2c.32,0,.56-.16.66-.42h.18c.32,0,.57-.16.67-.43h.16c.33,0,.57-.17.67-.44h.14c.33,0,.57-.17.67-.44h.12c.33,0,.57-.17.67-.45h.1c.33,0,.58-.17.67-.45h.08c.33,0,.58-.18.67-.45h.07c.33,0,.58-.18.67-.46h.05c.33,0,.58-.18.67-.46h.03c.33,0,.58-.18.67-.46h.01c.34,0,.58-.18.67-.46.33,0,.57-.18.66-.46.32-.01.55-.18.64-.45.31-.02.54-.18.62-.45.3-.02.52-.19.61-.45.29-.03.5-.19.59-.44.28-.03.48-.19.57-.43.26-.04.46-.19.54-.43.25-.04.44-.19.52-.42.24-.05.42-.19.5-.41.23-.05.4-.19.48-.4.22-.05.38-.19.46-.39.2-.06.36-.18.43-.37.19-.06.34-.18.41-.36.28-.09.46-.34.46-.67v-4.52c0-.43-.29-.72-.72-.72h-4.52c-.31,0-.55.15-.65.4-.04.01-.08.03-.11.05-.09-.28-.34-.46-.67-.46h-4.52c-.31,0-.55.15-.65.4-.04.01-.08.03-.11.05-.09-.28-.34-.46-.67-.46h-1.02s.04-.06.06-.09h.29ZM168.91,61.09s-.05.08-.06.12c-.28.03-.48.19-.57.44-.29.03-.5.19-.59.44-.3.02-.52.19-.61.45-.31.02-.54.18-.62.45-.32.01-.55.18-.64.45-.33,0-.57.18-.66.45h-.01c-.33,0-.58.18-.67.46h-.03c-.33,0-.58.18-.67.46h-.05c-.33,0-.58.18-.67.45h-.07c-.33,0-.58.17-.67.45h-.08c-.33,0-.57.17-.67.45h-.1c-.33,0-.57.17-.67.44h-.12c-.33,0-.57.17-.67.44h-.14c-.32,0-.57.16-.67.43h-.16c-.32,0-.56.16-.66.42h-.18c-.32,0-.56.16-.66.41h-.2c-.31,0-.55.15-.65.4h-.22c-.31,0-.54.15-.65.39h-.24c-.3,0-.53.15-.64.38h-.27c-.3,0-.52.14-.63.37h-.29c-.29,0-.51.14-.62.36h-.31c-.28,0-.49.13-.61.34h-.34c-.28,0-.48.13-.6.33h-.36c-.27,0-.47.12-.59.31h-.39c-.26,0-.46.11-.58.29h-.41c-.25,0-.44.11-.57.27h-.44c-.24,0-.43.1-.56.26h-.46c-.23,0-.42.09-.54.23h-.49c-.22,0-.41.08-.53.21h-.52c-.21,0-.39.07-.51.19h-.55c-.14,0-.25.04-.35.09h-.51c-.1-.06-.22-.1-.36-.1h-.18c.19,0,.36-.07.48-.19h.55c.22,0,.4-.08.53-.21h.52c.23,0,.42-.09.54-.23h.49c.24,0,.43-.1.56-.26h.46c.25,0,.44-.11.57-.27h.44c.26,0,.46-.11.58-.29h.41c.27,0,.47-.12.59-.31h.39c.28,0,.48-.13.6-.33h.36c.28,0,.49-.13.61-.34h.34c.29,0,.51-.14.62-.36h.31c.3,0,.52-.14.63-.37h.29c.3,0,.53-.15.64-.38h.27c.31,0,.54-.15.65-.39h.24c.31,0,.55-.15.65-.4h.22c.32,0,.56-.16.66-.41h.2c.32,0,.56-.16.66-.42h.18c.32,0,.57-.16.67-.43h.16c.33,0,.57-.17.67-.44h.14c.33,0,.57-.17.67-.44h.12c.33,0,.57-.17.67-.45h.1c.33,0,.58-.17.67-.45h.08c.33,0,.58-.18.67-.45h.07c.33,0,.58-.18.67-.46h.05c.33,0,.58-.18.67-.46h.03c.33,0,.58-.18.67-.46h.01c.34,0,.58-.18.67-.46.33,0,.57-.18.66-.46.32-.01.55-.18.64-.45.31-.02.54-.18.62-.45.3-.02.52-.18.6-.44h.28c.14,0,.26-.04.36-.09h.66ZM36.85,31.28h.02c.11.23.34.38.64.38h.03c.11.23.34.38.64.38h.04c.11.23.34.38.64.38h.05c.11.23.34.38.64.38h.05c.11.23.34.38.64.38h.06c.11.23.34.38.64.38h.07c.11.23.34.38.64.38h.08c.11.23.34.38.64.38h.09c.11.23.34.38.64.38h.1c.11.23.34.38.64.38h.11c.11.23.33.37.63.37h.12c.11.23.33.37.63.37h.12c.11.23.33.37.63.37h.13c.11.23.33.37.63.37h.14c.11.23.33.37.63.37h.15c.11.23.33.37.63.37h.16c.11.22.33.37.63.37h.17c.11.22.33.37.63.37h.18c.11.22.33.36.63.36h.19c.11.22.33.36.63.36h.2c.11.22.33.36.63.36h.21c.12.22.33.36.62.36h.22c.12.22.33.36.62.36h.23c.12.22.33.35.62.35h.24c.12.22.33.35.62.35h.25c.12.21.33.35.62.35h.26c.12.21.33.35.62.35h.27c.12.21.33.35.62.35h.28c.12.21.33.34.61.34h.29c.12.21.33.34.61.34h.3c.12.21.33.34.61.34h.31c.12.2.33.34.61.34h.32c.12.2.33.33.61.33h.33c.12.2.33.33.61.33h.34c.12.2.33.33.6.33h.35c.12.2.33.32.6.32h.37c.12.2.33.32.6.32h.38c.12.19.33.32.6.32h.39c.12.19.33.32.6.32h.4c.12.19.32.31.59.31h.41c.12.19.32.31.59.31h.42c.12.19.32.31.59.31h.43c.12.18.32.3.59.3h.44c.12.18.32.3.59.3h.46c.12.18.32.29.58.29h.47c.12.18.32.29.58.29h.48c.12.18.32.29.58.29h.49c.12.17.32.28.58.28h.5c.12.17.32.28.57.28h.52c.12.17.32.28.57.28h.53c.13.17.32.27.57.27h.54c.13.16.32.27.57.27h.55c.13.16.32.26.56.26h.56c.13.16.32.26.56.26h.58c.13.16.31.25.56.25h.59c.13.15.31.25.55.25h.6c.13.15.31.24.55.24h.61c.13.15.31.24.55.24h.63c.13.15.31.23.54.23h.64c.13.14.31.23.54.23h.5c.12.17.32.28.58.28h.4c.12.19.32.31.59.31h.41c.12.19.32.31.59.31h.42s.02.04.04.06c-.05,0-.09-.03-.15-.03h-.69c-.13-.13-.31-.21-.53-.21h-.68c-.13-.13-.31-.21-.53-.21h-.67c-.13-.14-.31-.22-.53-.22h-.65c-.13-.14-.31-.22-.54-.22h-.64c-.13-.14-.31-.23-.54-.23h-.63c-.13-.15-.31-.23-.54-.23h-.61c-.13-.15-.31-.24-.55-.24h-.6c-.13-.15-.31-.24-.55-.24h-.59c-.13-.15-.31-.25-.55-.25h-.58c-.13-.16-.31-.25-.56-.25h-.56c-.13-.16-.32-.26-.56-.26h-.55c-.13-.16-.32-.26-.56-.26h-.54c-.13-.16-.32-.27-.56-.27h-.53c-.13-.17-.32-.27-.57-.27h-.52c-.12-.17-.32-.28-.57-.28h-.5c-.12-.17-.32-.28-.57-.28h-.49c-.12-.17-.32-.28-.58-.28h-.48c-.12-.18-.32-.29-.58-.29h-.47c-.12-.18-.32-.29-.58-.29h-.46c-.12-.18-.32-.29-.58-.29h-.44c-.12-.18-.32-.3-.59-.3h-.43c-.12-.18-.32-.3-.59-.3h-.42c-.12-.19-.32-.31-.59-.31h-.41c-.12-.19-.32-.31-.59-.31h-.4c-.12-.19-.32-.31-.59-.31h-.39c-.12-.19-.32-.32-.6-.32h-.38c-.12-.19-.33-.32-.6-.32h-.37c-.12-.2-.33-.32-.6-.32h-.35c-.12-.2-.33-.32-.6-.32h-.34c-.12-.2-.33-.33-.6-.33h-.33c-.12-.2-.33-.33-.61-.33h-.32c-.12-.2-.33-.33-.61-.33h-.31c-.12-.2-.33-.34-.61-.34h-.3c-.12-.21-.33-.34-.61-.34h-.29c-.12-.21-.33-.34-.61-.34h-.28c-.12-.21-.33-.34-.61-.34h-.27c-.12-.21-.33-.35-.62-.35h-.26c-.12-.21-.33-.35-.62-.35h-.25c-.12-.21-.33-.35-.62-.35h-.24c-.12-.22-.33-.35-.62-.35h-.23c-.12-.22-.33-.35-.62-.35h-.22c-.12-.22-.33-.36-.62-.36h-.21c-.12-.22-.33-.36-.62-.36h-.2c-.11-.22-.33-.36-.63-.36h-.19c-.11-.22-.33-.36-.63-.36h-.18c-.11-.22-.33-.36-.63-.36h-.17c-.11-.22-.33-.37-.63-.37h-.16c-.11-.22-.33-.37-.63-.37h-.15c-.11-.23-.33-.37-.63-.37h-.14c-.11-.23-.33-.37-.63-.37h-.13c-.11-.23-.33-.37-.63-.37h-.12c-.11-.23-.33-.37-.63-.37h-.12c-.11-.23-.33-.37-.63-.37h-.11c-.11-.23-.33-.37-.63-.37h-.1c-.11-.23-.34-.38-.63-.38h-.09c-.11-.23-.34-.38-.64-.38h-.08c-.11-.23-.34-.38-.64-.38h-.07c-.11-.23-.34-.38-.64-.38h-.06c-.11-.23-.34-.38-.64-.38h-.05c-.11-.23-.34-.38-.64-.38h-.05c-.1-.21-.29-.34-.55-.36,0,0-.02-.01-.03-.02-.04-.07-.08-.12-.14-.17-.04-.06-.08-.12-.13-.17-.04-.06-.08-.11-.13-.16-.03-.06-.07-.11-.12-.15-.03-.05-.07-.11-.12-.15-.03-.05-.07-.1-.11-.14-.03-.05-.06-.1-.1-.14-.03-.05-.06-.09-.1-.13-.03-.04-.06-.09-.09-.12,0,0-.01-.02-.02-.02.12.09.26.15.44.15ZM93.77,81.54h-.68c-.13-.13-.31-.21-.53-.21h-.67c-.13-.14-.31-.22-.53-.22h-.54c-.13-.16-.32-.26-.56-.26h-.38c-.12-.19-.33-.32-.6-.32h-.37c-.12-.2-.33-.32-.6-.32h-.35c-.12-.2-.33-.32-.6-.32h-.34c-.12-.2-.33-.33-.6-.33h-.33c-.12-.2-.33-.33-.61-.33h-.32c-.12-.2-.33-.33-.61-.33h-.31c-.12-.2-.33-.34-.61-.34h-.3c-.12-.21-.33-.34-.61-.34h-.29c-.12-.21-.33-.34-.61-.34h-.28c-.12-.21-.33-.34-.61-.34h-.27c-.12-.21-.33-.35-.62-.35h-.26c-.12-.21-.33-.35-.62-.35h-.25c-.12-.21-.33-.35-.62-.35h-.24c-.12-.22-.33-.35-.62-.35h-.23c-.12-.22-.33-.35-.62-.35h-.22c-.12-.22-.33-.36-.62-.36h-.21c-.12-.22-.33-.36-.62-.36h-.2c-.11-.22-.33-.36-.63-.36h-.19c-.11-.22-.33-.36-.63-.36h-.18c-.11-.22-.33-.36-.63-.36h-.17c-.11-.22-.33-.37-.63-.37h-.16c-.11-.22-.33-.37-.63-.37h-.15c-.11-.23-.33-.37-.63-.37h-.14c-.11-.23-.33-.37-.63-.37h-.13c-.11-.23-.33-.37-.63-.37h-.12c-.11-.23-.33-.37-.63-.37h-.12c-.11-.23-.33-.37-.63-.37h-.11c-.11-.23-.33-.37-.63-.37h-.1c-.11-.23-.34-.38-.63-.38h-.09c-.11-.23-.34-.38-.64-.38h-.08c-.11-.23-.34-.38-.64-.38h-.07c-.11-.23-.34-.38-.64-.38h-.06c-.11-.23-.34-.38-.64-.38h-.05c-.11-.23-.34-.38-.64-.38h-.05c-.11-.23-.34-.38-.64-.38h-.04c-.11-.23-.34-.38-.64-.38h-.03c-.11-.23-.34-.38-.64-.38h-.02c-.11-.23-.34-.38-.64-.38h-.01c-.11-.23-.34-.38-.64-.38h0c-.11-.23-.33-.38-.64-.38-.11-.23-.33-.37-.63-.38-.11-.23-.33-.37-.62-.38-.11-.23-.32-.37-.61-.38-.11-.23-.32-.37-.6-.38-.1-.22-.32-.36-.6-.38-.1-.22-.31-.36-.59-.38-.1-.22-.31-.36-.58-.38-.02-.05-.06-.1-.09-.15.11.07.24.12.4.12h.23c.12.22.33.35.62.35h.24c.12.22.33.35.62.35h.23s.02.01.03.01c.1.17.27.29.49.32.1.06.22.1.36.11.11.23.33.37.62.38.11.23.33.38.63.38.11.23.33.38.64.38.11.23.34.38.64.38h0c.11.23.34.38.64.38h.01c.11.23.34.38.64.38h.02c.11.23.34.38.64.38h.03c.11.23.34.38.64.38h.04c.11.23.34.38.64.38h.05c.11.23.34.38.64.38h.05c.11.23.34.38.64.38h.06c.11.23.34.38.64.38h.07c.11.23.34.38.64.38h.08c.11.23.34.38.64.38h.09c.11.23.34.38.64.38h.1c.11.23.34.38.64.38h.11c.11.23.33.37.63.37h.12c.11.23.33.37.63.37h.12c.11.23.33.37.63.37h.13c.11.23.33.37.63.37h.14c.11.23.33.37.63.37h.15c.11.23.33.37.63.37h.16c.11.22.33.37.63.37h.17c.11.22.33.37.63.37h.18c.11.22.33.36.63.36h.19c.11.22.33.36.63.36h.2c.11.22.33.36.63.36h.21c.12.22.33.36.62.36h.22c.12.22.33.36.62.36h.23c.12.22.33.35.62.35h.24c.12.22.33.35.62.35h.25c.12.21.33.35.62.35h.26c.12.21.33.35.62.35h.27c.12.21.33.35.62.35h.28c.12.21.33.34.61.34h.29c.12.21.33.34.61.34h.3c.12.21.33.34.61.34h.31c.12.2.33.34.61.34h.32c.12.2.33.33.61.33h.33c.12.2.33.33.61.33h.34c.12.2.33.33.6.33h.35c.12.2.33.32.6.32h.37c.12.2.33.32.6.32h.38c.12.19.33.32.6.32h.39c.12.19.32.32.6.32h.4c.12.19.32.31.59.31h.41c.09.14.22.23.4.27h-.18c-.13-.13-.31-.21-.53-.21ZM53.55,63.55c-.09-.06-.2-.1-.33-.11,0,0,0,0,0-.01.02,0,.03,0,.05,0h.22s.04.08.07.11ZM142.54,90.57h-.18c.13,0,.25-.04.35-.1h.89c.11.06.23.1.37.1h.35s0,0-.01,0h-.55c-.14,0-.25.04-.35.09h-.51c-.1-.06-.22-.1-.36-.1ZM170.42,77.87c-.2.04-.36.15-.45.32h-.2c-.22,0-.41.08-.53.21h-.52s-.04,0-.07.01c.04-.05.08-.11.1-.17.21-.03.37-.13.47-.29h.15c.24,0,.43-.1.56-.26h.46c.06,0,.1-.02.15-.03-.05.06-.09.12-.12.2Z"/>
    </clipPath>
  </defs>
  <g class="cls-231">
    <rect class="cls-100" x="170.16" y="77.67" width=".38" height=".74"/>
    <rect class="cls-103" x="169.31" y="77.67" width=".85" height=".74"/>
    <rect class="cls-12" x="168.65" y="77.67" width=".66" height=".74"/>
    <rect class="cls-181" x="143.79" y="90.47" width=".54" height=".2"/>
    <rect class="cls-227" x="142.94" y="90.47" width=".85" height=".2"/>
    <rect class="cls-131" x="142.37" y="90.47" width=".57" height=".2"/>
    <rect class="cls-198" x="53.22" y="63.43" width=".34" height=".12"/>
    <rect class="cls-222" x="94.44" y="63.68" width=".03" height="18.07"/>
    <rect class="cls-213" x="93.59" y="63.68" width=".85" height="18.07"/>
    <rect class="cls-98" x="92.74" y="63.68" width=".85" height="18.07"/>
    <rect class="cls-31" x="91.89" y="63.68" width=".85" height="18.07"/>
    <rect class="cls-96" x="91.04" y="63.68" width=".85" height="18.07"/>
    <rect class="cls-55" x="90.19" y="63.68" width=".85" height="18.07"/>
    <rect class="cls-224" x="89.33" y="63.68" width=".85" height="18.07"/>
    <rect class="cls-62" x="88.48" y="63.68" width=".85" height="18.07"/>
    <rect class="cls-127" x="87.63" y="63.68" width=".85" height="18.07"/>
    <rect class="cls-142" x="86.78" y="63.68" width=".85" height="18.07"/>
    <rect class="cls-214" x="85.93" y="63.68" width=".85" height="18.07"/>
    <rect class="cls-88" x="85.08" y="63.68" width=".85" height="18.07"/>
    <rect class="cls-132" x="84.23" y="63.68" width=".85" height="18.07"/>
    <rect class="cls-219" x="83.38" y="63.68" width=".85" height="18.07"/>
    <rect class="cls-205" x="82.53" y="63.68" width=".85" height="18.07"/>
    <rect class="cls-226" x="81.68" y="63.68" width=".85" height="18.07"/>
    <rect class="cls-138" x="80.83" y="63.68" width=".85" height="18.07"/>
    <rect class="cls-146" x="79.98" y="63.68" width=".85" height="18.07"/>
    <rect class="cls-229" x="79.12" y="63.68" width=".85" height="18.07"/>
    <rect class="cls-178" x="78.27" y="63.68" width=".85" height="18.07"/>
    <rect class="cls-43" x="77.42" y="63.68" width=".85" height="18.07"/>
    <rect class="cls-212" x="76.57" y="63.68" width=".85" height="18.07"/>
    <rect class="cls-15" x="75.72" y="63.68" width=".85" height="18.07"/>
    <rect class="cls-30" x="74.87" y="63.68" width=".85" height="18.07"/>
    <rect class="cls-201" x="74.02" y="63.68" width=".85" height="18.07"/>
    <rect class="cls-22" x="73.17" y="63.68" width=".85" height="18.07"/>
    <rect class="cls-177" x="72.32" y="63.68" width=".85" height="18.07"/>
    <rect class="cls-150" x="71.47" y="63.68" width=".85" height="18.07"/>
    <rect class="cls-94" x="70.62" y="63.68" width=".85" height="18.07"/>
    <rect class="cls-238" x="69.77" y="63.68" width=".85" height="18.07"/>
    <rect class="cls-83" x="68.92" y="63.68" width=".85" height="18.07"/>
    <rect class="cls-172" x="68.06" y="63.68" width=".85" height="18.07"/>
    <rect class="cls-84" x="67.21" y="63.68" width=".85" height="18.07"/>
    <rect class="cls-186" x="66.36" y="63.68" width=".85" height="18.07"/>
    <rect class="cls-73" x="65.51" y="63.68" width=".85" height="18.07"/>
    <rect class="cls-211" x="64.66" y="63.68" width=".85" height="18.07"/>
    <rect class="cls-81" x="63.81" y="63.68" width=".85" height="18.07"/>
    <rect class="cls-53" x="62.96" y="63.68" width=".85" height="18.07"/>
    <rect class="cls-112" x="62.11" y="63.68" width=".85" height="18.07"/>
    <rect class="cls-223" x="61.26" y="63.68" width=".85" height="18.07"/>
    <rect class="cls-243" x="60.41" y="63.68" width=".85" height="18.07"/>
    <rect class="cls-179" x="59.56" y="63.68" width=".85" height="18.07"/>
    <rect class="cls-232" x="58.71" y="63.68" width=".85" height="18.07"/>
    <rect class="cls-70" x="57.85" y="63.68" width=".85" height="18.07"/>
    <rect class="cls-155" x="57" y="63.68" width=".85" height="18.07"/>
    <rect class="cls-89" x="56.15" y="63.68" width=".85" height="18.07"/>
    <rect class="cls-139" x="55.3" y="63.68" width=".85" height="18.07"/>
    <rect class="cls-204" x="54.45" y="63.68" width=".85" height="18.07"/>
    <rect class="cls-180" x="53.7" y="63.68" width=".75" height="18.07"/>
    <rect class="cls-222" x="94.44" y="31.14" width=".69" height="20.79"/>
    <rect class="cls-213" x="93.59" y="31.14" width=".85" height="20.79"/>
    <rect class="cls-98" x="92.74" y="31.14" width=".85" height="20.79"/>
    <rect class="cls-31" x="91.89" y="31.14" width=".85" height="20.79"/>
    <rect class="cls-96" x="91.04" y="31.14" width=".85" height="20.79"/>
    <rect class="cls-55" x="90.19" y="31.14" width=".85" height="20.79"/>
    <rect class="cls-224" x="89.33" y="31.14" width=".85" height="20.79"/>
    <rect class="cls-62" x="88.48" y="31.14" width=".85" height="20.79"/>
    <rect class="cls-127" x="87.63" y="31.14" width=".85" height="20.79"/>
    <rect class="cls-142" x="86.78" y="31.14" width=".85" height="20.79"/>
    <rect class="cls-214" x="85.93" y="31.14" width=".85" height="20.79"/>
    <rect class="cls-88" x="85.08" y="31.14" width=".85" height="20.79"/>
    <rect class="cls-132" x="84.23" y="31.14" width=".85" height="20.79"/>
    <rect class="cls-219" x="83.38" y="31.14" width=".85" height="20.79"/>
    <rect class="cls-205" x="82.53" y="31.14" width=".85" height="20.79"/>
    <rect class="cls-226" x="81.68" y="31.14" width=".85" height="20.79"/>
    <rect class="cls-138" x="80.83" y="31.14" width=".85" height="20.79"/>
    <rect class="cls-146" x="79.98" y="31.14" width=".85" height="20.79"/>
    <rect class="cls-229" x="79.12" y="31.14" width=".85" height="20.79"/>
    <rect class="cls-178" x="78.27" y="31.14" width=".85" height="20.79"/>
    <rect class="cls-43" x="77.42" y="31.14" width=".85" height="20.79"/>
    <rect class="cls-212" x="76.57" y="31.14" width=".85" height="20.79"/>
    <rect class="cls-15" x="75.72" y="31.14" width=".85" height="20.79"/>
    <rect class="cls-30" x="74.87" y="31.14" width=".85" height="20.79"/>
    <rect class="cls-201" x="74.02" y="31.14" width=".85" height="20.79"/>
    <rect class="cls-22" x="73.17" y="31.14" width=".85" height="20.79"/>
    <rect class="cls-177" x="72.32" y="31.14" width=".85" height="20.79"/>
    <rect class="cls-150" x="71.47" y="31.14" width=".85" height="20.79"/>
    <rect class="cls-94" x="70.62" y="31.14" width=".85" height="20.79"/>
    <rect class="cls-238" x="69.77" y="31.14" width=".85" height="20.79"/>
    <rect class="cls-83" x="68.92" y="31.14" width=".85" height="20.79"/>
    <rect class="cls-172" x="68.06" y="31.14" width=".85" height="20.79"/>
    <rect class="cls-84" x="67.21" y="31.14" width=".85" height="20.79"/>
    <rect class="cls-186" x="66.36" y="31.14" width=".85" height="20.79"/>
    <rect class="cls-73" x="65.51" y="31.14" width=".85" height="20.79"/>
    <rect class="cls-211" x="64.66" y="31.14" width=".85" height="20.79"/>
    <rect class="cls-81" x="63.81" y="31.14" width=".85" height="20.79"/>
    <rect class="cls-53" x="62.96" y="31.14" width=".85" height="20.79"/>
    <rect class="cls-112" x="62.11" y="31.14" width=".85" height="20.79"/>
    <rect class="cls-223" x="61.26" y="31.14" width=".85" height="20.79"/>
    <rect class="cls-243" x="60.41" y="31.14" width=".85" height="20.79"/>
    <rect class="cls-179" x="59.56" y="31.14" width=".85" height="20.79"/>
    <rect class="cls-232" x="58.71" y="31.14" width=".85" height="20.79"/>
    <rect class="cls-70" x="57.85" y="31.14" width=".85" height="20.79"/>
    <rect class="cls-155" x="57" y="31.14" width=".85" height="20.79"/>
    <rect class="cls-89" x="56.15" y="31.14" width=".85" height="20.79"/>
    <rect class="cls-139" x="55.3" y="31.14" width=".85" height="20.79"/>
    <rect class="cls-204" x="54.45" y="31.14" width=".85" height="20.79"/>
    <rect class="cls-180" x="53.6" y="31.14" width=".85" height="20.79"/>
    <rect class="cls-198" x="52.75" y="31.14" width=".85" height="20.79"/>
    <rect class="cls-235" x="51.9" y="31.14" width=".85" height="20.79"/>
    <rect class="cls-67" x="51.05" y="31.14" width=".85" height="20.79"/>
    <rect class="cls-11" x="50.2" y="31.14" width=".85" height="20.79"/>
    <rect class="cls-135" x="49.35" y="31.14" width=".85" height="20.79"/>
    <rect class="cls-74" x="48.5" y="31.14" width=".85" height="20.79"/>
    <rect class="cls-41" x="47.65" y="31.14" width=".85" height="20.79"/>
    <rect class="cls-175" x="46.79" y="31.14" width=".85" height="20.79"/>
    <rect class="cls-174" x="45.94" y="31.14" width=".85" height="20.79"/>
    <rect class="cls-137" x="45.09" y="31.14" width=".85" height="20.79"/>
    <rect class="cls-36" x="44.24" y="31.14" width=".85" height="20.79"/>
    <rect class="cls-140" x="43.39" y="31.14" width=".85" height="20.79"/>
    <rect class="cls-225" x="42.54" y="31.14" width=".85" height="20.79"/>
    <rect class="cls-145" x="41.69" y="31.14" width=".85" height="20.79"/>
    <rect class="cls-152" x="40.84" y="31.14" width=".85" height="20.79"/>
    <rect class="cls-4" x="39.99" y="31.14" width=".85" height="20.79"/>
    <rect class="cls-123" x="39.14" y="31.14" width=".85" height="20.79"/>
    <rect class="cls-159" x="38.29" y="31.14" width=".85" height="20.79"/>
    <rect class="cls-1" x="37.44" y="31.14" width=".85" height="20.79"/>
    <rect class="cls-194" x="36.58" y="31.14" width=".85" height="20.79"/>
    <rect class="cls-47" x="36.42" y="31.14" width=".17" height="20.79"/>
    <rect class="cls-12" x="168.46" y="61.09" width=".45" height="11.64"/>
    <rect class="cls-124" x="167.61" y="61.09" width=".85" height="11.64"/>
    <rect class="cls-167" x="166.76" y="61.09" width=".85" height="11.64"/>
    <rect class="cls-196" x="165.91" y="61.09" width=".85" height="11.64"/>
    <rect class="cls-163" x="165.06" y="61.09" width=".85" height="11.64"/>
    <rect class="cls-233" x="164.21" y="61.09" width=".85" height="11.64"/>
    <rect class="cls-23" x="163.35" y="61.09" width=".85" height="11.64"/>
    <rect class="cls-85" x="162.5" y="61.09" width=".85" height="11.64"/>
    <rect class="cls-2" x="161.65" y="61.09" width=".85" height="11.64"/>
    <rect class="cls-113" x="160.8" y="61.09" width=".85" height="11.64"/>
    <rect class="cls-60" x="159.95" y="61.09" width=".85" height="11.64"/>
    <rect class="cls-130" x="159.1" y="61.09" width=".85" height="11.64"/>
    <rect class="cls-160" x="158.25" y="61.09" width=".85" height="11.64"/>
    <rect class="cls-215" x="157.4" y="61.09" width=".85" height="11.64"/>
    <rect class="cls-149" x="156.55" y="61.09" width=".85" height="11.64"/>
    <rect class="cls-92" x="155.7" y="61.09" width=".85" height="11.64"/>
    <rect class="cls-29" x="154.85" y="61.09" width=".85" height="11.64"/>
    <rect class="cls-115" x="154" y="61.09" width=".85" height="11.64"/>
    <rect class="cls-154" x="153.14" y="61.09" width=".85" height="11.64"/>
    <rect class="cls-244" x="152.29" y="61.09" width=".85" height="11.64"/>
    <rect class="cls-162" x="151.44" y="61.09" width=".85" height="11.64"/>
    <rect class="cls-164" x="150.59" y="61.09" width=".85" height="11.64"/>
    <rect class="cls-242" x="149.74" y="61.09" width=".85" height="11.64"/>
    <rect class="cls-44" x="148.89" y="61.09" width=".85" height="11.64"/>
    <rect class="cls-109" x="148.04" y="61.09" width=".85" height="11.64"/>
    <rect class="cls-17" x="147.19" y="61.09" width=".85" height="11.64"/>
    <rect class="cls-77" x="146.34" y="61.09" width=".85" height="11.64"/>
    <rect class="cls-72" x="145.49" y="61.09" width=".85" height="11.64"/>
    <rect class="cls-161" x="144.64" y="61.09" width=".85" height="11.64"/>
    <rect class="cls-181" x="143.79" y="61.09" width=".85" height="11.64"/>
    <rect class="cls-227" x="142.94" y="61.09" width=".85" height="11.64"/>
    <rect class="cls-131" x="142.37" y="61.09" width=".57" height="11.64"/>
    <rect class="cls-32" x="201.64" y="0" width=".85" height="97.18"/>
    <rect class="cls-190" x="200.79" y="0" width=".85" height="97.18"/>
    <rect class="cls-9" x="199.94" y="0" width=".85" height="97.18"/>
    <rect class="cls-216" x="199.09" y="0" width=".85" height="97.18"/>
    <rect class="cls-63" x="198.24" y="0" width=".85" height="97.18"/>
    <rect class="cls-143" x="197.39" y="0" width=".85" height="97.18"/>
    <rect class="cls-5" x="196.54" y="0" width=".85" height="97.18"/>
    <rect class="cls-6" x="195.68" y="0" width=".85" height="97.18"/>
    <rect class="cls-118" x="194.83" y="0" width=".85" height="97.18"/>
    <rect class="cls-136" x="193.98" y="0" width=".85" height="97.18"/>
    <rect class="cls-68" x="193.13" y="0" width=".85" height="97.18"/>
    <rect class="cls-202" x="192.28" y="0" width=".85" height="97.18"/>
    <rect class="cls-33" x="191.43" y="0" width=".85" height="97.18"/>
    <rect class="cls-170" x="190.58" y="0" width=".85" height="97.18"/>
    <rect class="cls-13" x="189.73" y="0" width=".85" height="97.18"/>
    <rect class="cls-75" x="188.88" y="0" width=".85" height="97.18"/>
    <rect class="cls-86" x="188.03" y="0" width=".85" height="97.18"/>
    <rect class="cls-203" x="187.18" y="0" width=".85" height="97.18"/>
    <rect class="cls-95" x="186.33" y="0" width=".85" height="97.18"/>
    <rect class="cls-27" x="185.48" y="0" width=".85" height="97.18"/>
    <rect class="cls-65" x="184.62" y="0" width=".85" height="97.18"/>
    <rect class="cls-42" x="183.77" y="0" width=".85" height="97.18"/>
    <rect class="cls-116" x="182.92" y="0" width=".85" height="97.18"/>
    <rect class="cls-121" x="182.07" y="0" width=".85" height="97.18"/>
    <rect class="cls-236" x="181.22" y="0" width=".85" height="97.18"/>
    <rect class="cls-39" x="180.37" y="0" width=".85" height="97.18"/>
    <rect class="cls-187" x="179.52" y="0" width=".85" height="97.18"/>
    <rect class="cls-79" x="178.67" y="0" width=".85" height="97.18"/>
    <rect class="cls-189" x="177.82" y="0" width=".85" height="97.18"/>
    <rect class="cls-168" x="176.97" y="0" width=".85" height="97.18"/>
    <rect class="cls-185" x="176.12" y="0" width=".85" height="97.18"/>
    <rect class="cls-8" x="175.27" y="0" width=".85" height="97.18"/>
    <rect class="cls-239" x="174.41" y="0" width=".85" height="97.18"/>
    <rect class="cls-21" x="173.56" y="0" width=".85" height="97.18"/>
    <rect class="cls-210" x="172.71" y="0" width=".85" height="97.18"/>
    <rect class="cls-234" x="171.86" y="0" width=".85" height="97.18"/>
    <rect class="cls-230" x="171.01" y="0" width=".85" height="97.18"/>
    <rect class="cls-100" x="170.16" y="0" width=".85" height="97.18"/>
    <rect class="cls-103" x="169.31" y="0" width=".85" height="97.18"/>
    <rect class="cls-12" x="168.46" y="0" width=".85" height="97.18"/>
    <rect class="cls-124" x="167.61" y="0" width=".85" height="97.18"/>
    <rect class="cls-167" x="166.76" y="0" width=".85" height="97.18"/>
    <rect class="cls-196" x="165.91" y="0" width=".85" height="97.18"/>
    <rect class="cls-163" x="165.06" y="0" width=".85" height="97.18"/>
    <rect class="cls-233" x="164.21" y="0" width=".85" height="97.18"/>
    <rect class="cls-23" x="163.35" y="0" width=".85" height="97.18"/>
    <rect class="cls-85" x="162.5" y="0" width=".85" height="97.18"/>
    <rect class="cls-2" x="161.65" y="0" width=".85" height="97.18"/>
    <rect class="cls-113" x="160.8" y="0" width=".85" height="97.18"/>
    <rect class="cls-60" x="159.95" y="0" width=".85" height="97.18"/>
    <rect class="cls-130" x="159.1" y="0" width=".85" height="97.18"/>
    <rect class="cls-160" x="158.25" y="0" width=".85" height="97.18"/>
    <rect class="cls-215" x="157.4" y="0" width=".85" height="97.18"/>
    <rect class="cls-149" x="156.55" y="0" width=".85" height="97.18"/>
    <rect class="cls-92" x="155.7" y="0" width=".85" height="97.18"/>
    <rect class="cls-29" x="154.85" y="0" width=".85" height="97.18"/>
    <rect class="cls-115" x="154" y="0" width=".85" height="97.18"/>
    <rect class="cls-154" x="153.14" y="0" width=".85" height="97.18"/>
    <rect class="cls-244" x="152.29" y="0" width=".85" height="97.18"/>
    <rect class="cls-162" x="151.44" y="0" width=".85" height="97.18"/>
    <rect class="cls-164" x="150.59" y="0" width=".85" height="97.18"/>
    <rect class="cls-242" x="149.74" y="0" width=".85" height="97.18"/>
    <rect class="cls-44" x="148.89" y="0" width=".85" height="97.18"/>
    <rect class="cls-109" x="148.04" y="0" width=".85" height="97.18"/>
    <rect class="cls-17" x="147.19" y="0" width=".85" height="97.18"/>
    <rect class="cls-77" x="146.34" y="0" width=".85" height="97.18"/>
    <rect class="cls-72" x="145.49" y="0" width=".85" height="97.18"/>
    <rect class="cls-161" x="144.64" y="0" width=".85" height="97.18"/>
    <rect class="cls-181" x="143.79" y="0" width=".85" height="97.18"/>
    <rect class="cls-227" x="142.94" y="0" width=".85" height="97.18"/>
    <rect class="cls-131" x="142.08" y="0" width=".85" height="97.18"/>
    <rect class="cls-82" x="141.23" y="0" width=".85" height="97.18"/>
    <rect class="cls-199" x="140.38" y="0" width=".85" height="97.18"/>
    <rect class="cls-111" x="139.53" y="0" width=".85" height="97.18"/>
    <rect class="cls-106" x="138.68" y="0" width=".85" height="97.18"/>
    <rect class="cls-191" x="137.83" y="0" width=".85" height="97.18"/>
    <rect class="cls-104" x="136.98" y="0" width=".85" height="97.18"/>
    <rect class="cls-153" x="136.13" y="0" width=".85" height="97.18"/>
    <rect class="cls-52" x="135.28" y="0" width=".85" height="97.18"/>
    <rect class="cls-45" x="134.43" y="0" width=".85" height="97.18"/>
    <rect class="cls-129" x="133.58" y="0" width=".85" height="97.18"/>
    <rect class="cls-78" x="132.73" y="0" width=".85" height="97.18"/>
    <rect class="cls-184" x="131.87" y="0" width=".85" height="97.18"/>
    <rect class="cls-237" x="131.02" y="0" width=".85" height="97.18"/>
    <rect class="cls-126" x="130.17" y="0" width=".85" height="97.18"/>
    <rect class="cls-217" x="129.32" y="0" width=".85" height="97.18"/>
    <rect class="cls-195" x="128.47" y="0" width=".85" height="97.18"/>
    <rect class="cls-10" x="127.62" y="0" width=".85" height="97.18"/>
    <rect class="cls-206" x="126.77" y="0" width=".85" height="97.18"/>
    <rect class="cls-197" x="125.92" y="0" width=".85" height="97.18"/>
    <rect class="cls-173" x="125.07" y="0" width=".85" height="97.18"/>
    <rect class="cls-128" x="124.22" y="0" width=".85" height="97.18"/>
    <rect class="cls-105" x="123.37" y="0" width=".85" height="97.18"/>
    <rect class="cls-151" x="122.52" y="0" width=".85" height="97.18"/>
    <rect class="cls-171" x="121.66" y="0" width=".85" height="97.18"/>
    <rect class="cls-91" x="120.81" y="0" width=".85" height="97.18"/>
    <rect class="cls-80" x="119.96" y="0" width=".85" height="97.18"/>
    <rect class="cls-200" x="119.11" y="0" width=".85" height="97.18"/>
    <rect class="cls-119" x="118.26" y="0" width=".85" height="97.18"/>
    <rect class="cls-221" x="117.41" y="0" width=".85" height="97.18"/>
    <rect class="cls-56" x="116.56" y="0" width=".85" height="97.18"/>
    <rect class="cls-26" x="115.71" y="0" width=".85" height="97.18"/>
    <rect class="cls-209" x="114.86" y="0" width=".85" height="97.18"/>
    <rect class="cls-7" x="114.01" y="0" width=".85" height="97.18"/>
    <rect class="cls-245" x="113.16" y="0" width=".85" height="97.18"/>
    <rect class="cls-147" x="112.31" y="0" width=".85" height="97.18"/>
    <rect class="cls-157" x="111.46" y="0" width=".85" height="97.18"/>
    <rect class="cls-176" x="110.6" y="0" width=".85" height="97.18"/>
    <rect class="cls-35" x="109.75" y="0" width=".85" height="97.18"/>
    <rect class="cls-220" x="108.9" y="0" width=".85" height="97.18"/>
    <rect class="cls-46" x="108.05" y="0" width=".85" height="97.18"/>
    <rect class="cls-58" x="107.2" y="0" width=".85" height="97.18"/>
    <rect class="cls-156" x="106.35" y="0" width=".85" height="97.18"/>
    <rect class="cls-76" x="105.5" y="0" width=".85" height="97.18"/>
    <rect class="cls-188" x="104.65" y="0" width=".85" height="97.18"/>
    <rect class="cls-25" x="103.8" y="0" width=".85" height="97.18"/>
    <rect class="cls-192" x="102.95" y="0" width=".85" height="97.18"/>
    <rect class="cls-218" x="102.1" y="0" width=".85" height="97.18"/>
    <rect class="cls-228" x="101.25" y="0" width=".85" height="97.18"/>
    <rect class="cls-34" x="100.39" y="0" width=".85" height="97.18"/>
    <rect class="cls-208" x="99.54" y="0" width=".85" height="97.18"/>
    <rect class="cls-114" x="98.69" y="0" width=".85" height="97.18"/>
    <rect class="cls-69" x="97.84" y="0" width=".85" height="97.18"/>
    <rect class="cls-40" x="96.99" y="0" width=".85" height="97.18"/>
    <rect class="cls-107" x="96.14" y="0" width=".85" height="97.18"/>
    <rect class="cls-49" x="95.29" y="0" width=".85" height="97.18"/>
    <rect class="cls-222" x="94.44" y="0" width=".85" height="97.18"/>
    <rect class="cls-213" x="93.59" y="0" width=".85" height="97.18"/>
    <rect class="cls-98" x="92.74" y="0" width=".85" height="97.18"/>
    <rect class="cls-31" x="91.89" y="0" width=".85" height="97.18"/>
    <rect class="cls-96" x="91.04" y="0" width=".85" height="97.18"/>
    <rect class="cls-55" x="90.19" y="0" width=".85" height="97.18"/>
    <rect class="cls-224" x="89.33" y="0" width=".85" height="97.18"/>
    <rect class="cls-62" x="88.48" y="0" width=".85" height="97.18"/>
    <rect class="cls-127" x="87.63" y="0" width=".85" height="97.18"/>
    <rect class="cls-142" x="86.78" y="0" width=".85" height="97.18"/>
    <rect class="cls-214" x="85.93" y="0" width=".85" height="97.18"/>
    <rect class="cls-88" x="85.08" y="0" width=".85" height="97.18"/>
    <rect class="cls-132" x="84.23" y="0" width=".85" height="97.18"/>
    <rect class="cls-219" x="83.38" y="0" width=".85" height="97.18"/>
    <rect class="cls-205" x="82.53" y="0" width=".85" height="97.18"/>
    <rect class="cls-226" x="81.68" y="0" width=".85" height="97.18"/>
    <rect class="cls-138" x="80.83" y="0" width=".85" height="97.18"/>
    <rect class="cls-146" x="79.98" y="0" width=".85" height="97.18"/>
    <rect class="cls-229" x="79.12" y="0" width=".85" height="97.18"/>
    <rect class="cls-178" x="78.27" y="0" width=".85" height="97.18"/>
    <rect class="cls-43" x="77.42" y="0" width=".85" height="97.18"/>
    <rect class="cls-212" x="76.57" y="0" width=".85" height="97.18"/>
    <rect class="cls-15" x="75.72" y="0" width=".85" height="97.18"/>
    <rect class="cls-30" x="74.87" y="0" width=".85" height="97.18"/>
    <rect class="cls-201" x="74.02" y="0" width=".85" height="97.18"/>
    <rect class="cls-22" x="73.17" y="0" width=".85" height="97.18"/>
    <rect class="cls-177" x="72.32" y="0" width=".85" height="97.18"/>
    <rect class="cls-150" x="71.47" y="0" width=".85" height="97.18"/>
    <rect class="cls-94" x="70.62" y="0" width=".85" height="97.18"/>
    <rect class="cls-238" x="69.77" y="0" width=".85" height="97.18"/>
    <rect class="cls-83" x="68.92" y="0" width=".85" height="97.18"/>
    <rect class="cls-172" x="68.06" y="0" width=".85" height="97.18"/>
    <rect class="cls-84" x="67.21" y="0" width=".85" height="97.18"/>
    <rect class="cls-186" x="66.36" y="0" width=".85" height="97.18"/>
    <rect class="cls-73" x="65.51" y="0" width=".85" height="97.18"/>
    <rect class="cls-211" x="64.66" y="0" width=".85" height="97.18"/>
    <rect class="cls-81" x="63.81" y="0" width=".85" height="97.18"/>
    <rect class="cls-53" x="62.96" y="0" width=".85" height="97.18"/>
    <rect class="cls-112" x="62.11" y="0" width=".85" height="97.18"/>
    <rect class="cls-223" x="61.26" y="0" width=".85" height="97.18"/>
    <rect class="cls-243" x="60.41" y="0" width=".85" height="97.18"/>
    <rect class="cls-179" x="59.56" y="0" width=".85" height="97.18"/>
    <rect class="cls-232" x="58.71" y="0" width=".85" height="97.18"/>
    <rect class="cls-70" x="57.85" y="0" width=".85" height="97.18"/>
    <rect class="cls-155" x="57" y="0" width=".85" height="97.18"/>
    <rect class="cls-89" x="56.15" y="0" width=".85" height="97.18"/>
    <rect class="cls-139" x="55.3" y="0" width=".85" height="97.18"/>
    <rect class="cls-204" x="54.45" y="0" width=".85" height="97.18"/>
    <rect class="cls-180" x="53.6" y="0" width=".85" height="97.18"/>
    <rect class="cls-198" x="52.75" y="0" width=".85" height="97.18"/>
    <rect class="cls-235" x="51.9" y="0" width=".85" height="97.18"/>
    <rect class="cls-67" x="51.05" y="0" width=".85" height="97.18"/>
    <rect class="cls-11" x="50.2" y="0" width=".85" height="97.18"/>
    <rect class="cls-135" x="49.35" y="0" width=".85" height="97.18"/>
    <rect class="cls-74" x="48.5" y="0" width=".85" height="97.18"/>
    <rect class="cls-41" x="47.65" y="0" width=".85" height="97.18"/>
    <rect class="cls-175" x="46.79" y="0" width=".85" height="97.18"/>
    <rect class="cls-174" x="45.94" y="0" width=".85" height="97.18"/>
    <rect class="cls-137" x="45.09" y="0" width=".85" height="97.18"/>
    <rect class="cls-36" x="44.24" y="0" width=".85" height="97.18"/>
    <rect class="cls-140" x="43.39" y="0" width=".85" height="97.18"/>
    <rect class="cls-225" x="42.54" y="0" width=".85" height="97.18"/>
    <rect class="cls-145" x="41.69" y="0" width=".85" height="97.18"/>
    <rect class="cls-152" x="40.84" y="0" width=".85" height="97.18"/>
    <rect class="cls-4" x="39.99" y="0" width=".85" height="97.18"/>
    <rect class="cls-123" x="39.14" y="0" width=".85" height="97.18"/>
    <rect class="cls-159" x="38.29" y="0" width=".85" height="97.18"/>
    <rect class="cls-1" x="37.44" y="0" width=".85" height="97.18"/>
    <rect class="cls-194" x="36.58" y="0" width=".85" height="97.18"/>
    <rect class="cls-47" x="35.73" y="0" width=".85" height="97.18"/>
    <rect class="cls-19" x="34.88" y="0" width=".85" height="97.18"/>
    <rect class="cls-59" x="34.03" y="0" width=".85" height="97.18"/>
    <rect class="cls-37" x="33.18" y="0" width=".85" height="97.18"/>
    <rect class="cls-158" x="32.33" y="0" width=".85" height="97.18"/>
    <rect class="cls-141" x="31.48" y="0" width=".85" height="97.18"/>
    <rect class="cls-90" x="30.63" y="0" width=".85" height="97.18"/>
    <rect class="cls-101" x="29.78" y="0" width=".85" height="97.18"/>
    <rect class="cls-54" x="28.93" y="0" width=".85" height="97.18"/>
    <rect class="cls-51" x="28.08" y="0" width=".85" height="97.18"/>
    <rect class="cls-144" x="27.23" y="0" width=".85" height="97.18"/>
    <rect class="cls-28" x="26.37" y="0" width=".85" height="97.18"/>
    <rect class="cls-120" x="25.52" y="0" width=".85" height="97.18"/>
    <rect class="cls-110" x="24.67" y="0" width=".85" height="97.18"/>
    <rect class="cls-102" x="23.82" y="0" width=".85" height="97.18"/>
    <rect class="cls-14" x="22.97" y="0" width=".85" height="97.18"/>
    <rect class="cls-93" x="22.12" y="0" width=".85" height="97.18"/>
    <rect class="cls-108" x="21.27" y="0" width=".85" height="97.18"/>
    <rect class="cls-165" x="20.42" y="0" width=".85" height="97.18"/>
    <rect class="cls-133" x="19.57" y="0" width=".85" height="97.18"/>
    <rect class="cls-182" x="18.72" y="0" width=".85" height="97.18"/>
    <rect class="cls-50" x="17.87" y="0" width=".85" height="97.18"/>
    <rect class="cls-148" x="17.02" y="0" width=".85" height="97.18"/>
    <rect class="cls-122" x="16.17" y="0" width=".85" height="97.18"/>
    <rect class="cls-166" x="15.31" y="0" width=".85" height="97.18"/>
    <rect class="cls-99" x="14.46" y="0" width=".85" height="97.18"/>
    <rect class="cls-117" x="13.61" y="0" width=".85" height="97.18"/>
    <rect class="cls-240" x="12.76" y="0" width=".85" height="97.18"/>
    <rect class="cls-207" x="11.91" y="0" width=".85" height="97.18"/>
    <rect class="cls-169" x="11.06" y="0" width=".85" height="97.18"/>
    <rect class="cls-71" x="10.21" y="0" width=".85" height="97.18"/>
    <rect class="cls-125" x="9.36" y="0" width=".85" height="97.18"/>
    <rect class="cls-241" x="8.51" y="0" width=".85" height="97.18"/>
    <rect class="cls-38" x="7.66" y="0" width=".85" height="97.18"/>
    <rect class="cls-66" x="6.81" y="0" width=".85" height="97.18"/>
    <rect class="cls-18" x="5.96" y="0" width=".85" height="97.18"/>
    <rect class="cls-183" x="5.1" y="0" width=".85" height="97.18"/>
    <rect class="cls-87" x="4.25" y="0" width=".85" height="97.18"/>
    <rect class="cls-134" x="3.4" y="0" width=".85" height="97.18"/>
    <rect class="cls-64" x="2.55" y="0" width=".85" height="97.18"/>
    <rect class="cls-97" x="1.7" y="0" width=".85" height="97.18"/>
    <rect class="cls-24" x=".85" y="0" width=".85" height="97.18"/>
    <rect x="0" y="0" width=".85" height="97.18"/>
  </g>
  <g>
    <path class="cls-170" d="M167.71,57.24h4.52c.3,0,.53-.14.64-.38.16-.06.28-.17.35-.32.15-.06.27-.17.33-.32.13-.05.23-.14.29-.26.13-.06.23-.16.29-.28.11-.06.2-.14.26-.25.09-.05.16-.12.22-.21.09-.06.15-.13.2-.21.01,0,.01-.01.01-.01.07-.04.12-.09.16-.16,0-.01,0-.01.02-.02.18-.12.28-.33.28-.59v-4.59c0-.33-.17-.57-.45-.67.06-.04.11-.09.15-.15,0-.01,0-.01.02-.02.18-.12.28-.33.28-.59v-4.52c0-.33-.17-.58-.45-.68.06-.04.11-.09.15-.15,0-.01,0-.01.02-.02.18-.12.28-.33.28-.59v-3.02h2.9c.3,0,.53-.14.64-.38h.01s.07-.04.1-.05c.08.31.34.5.68.5h4.6c.3,0,.53-.14.64-.38.04-.02.08-.03.12-.05.1.27.35.43.67.43h4.52c.3,0,.53-.14.64-.38h.01s.08-.04.12-.06c.1.27.34.44.67.44h4.52c.3,0,.53-.14.64-.38.16-.06.29-.17.36-.32.14-.06.25-.17.32-.3.13-.06.24-.16.3-.29.12-.06.22-.15.28-.27.11-.05.19-.13.25-.24.1-.05.17-.13.23-.22.08-.05.15-.12.21-.2.07-.05.14-.12.19-.19h.01c.16-.14.26-.34.26-.59v-4.59c0-.43-.29-.72-.72-.72h-4.52c-.27,0-.48.11-.61.3,0,.01-.01.01-.01.01-.05.05-.1.1-.14.15-.09-.28-.33-.46-.67-.46h-4.52c-.26,0-.47.1-.59.28-.01.01-.01.02-.02.02-.06.04-.11.09-.15.15-.1-.28-.35-.45-.68-.45h-4.59c-.27,0-.48.11-.61.3,0,.01-.01.01-.01.01-.05.05-.1.1-.14.15-.09-.28-.33-.46-.67-.46h-4.52c-.26,0-.47.1-.59.28-.01.01-.01.02-.02.02-.07.05-.12.1-.17.17-.08.06-.15.13-.2.22h-.01c-.08.06-.16.14-.21.23-.1.06-.17.13-.23.23-.12.06-.21.16-.27.28-.13.06-.23.16-.29.29-.14.06-.25.16-.3.3-.15.06-.27.16-.33.31h-.01c-.27.1-.43.35-.43.67v3.03h-2.9c-.27,0-.48.11-.61.3h0c-.06.05-.11.1-.16.17-.08.06-.15.13-.2.22h-.01c-.08.05-.15.12-.2.21-.11.06-.19.15-.25.26-.12.06-.21.15-.27.27-.12.06-.22.15-.28.28-.14.06-.25.16-.31.3-.15.06-.27.17-.33.32h-.01c-.26.11-.42.35-.42.67v4.52c0,.34.18.59.47.68-.02.03-.04.06-.05.1-.26.1-.42.33-.42.65v4.52c0,.34.18.59.47.68-.02.03-.03.06-.04.09h-.01c-.26.11-.42.35-.42.67v4.59c0,.43.29.72.72.72Z"/>
    <path class="cls-170" d="M173.22,74.48c.15-.06.27-.17.33-.32.13-.05.23-.15.3-.28.12-.05.22-.14.28-.26.11-.06.2-.14.26-.25.1-.06.17-.14.22-.23h.01c.08-.05.14-.11.19-.19.07-.05.13-.1.17-.17,0-.01,0-.01.02-.02.18-.12.28-.33.28-.59v-4.59c0-.43-.29-.72-.72-.72h-4.52c-.27,0-.48.11-.61.3,0,.01,0,.01,0,.01-.06.05-.11.11-.15.17t-.01,0c-.07.05-.13.11-.19.19-.09.06-.16.14-.22.23-.1.07-.19.15-.24.26-.11.06-.2.15-.26.26-.13.06-.23.16-.29.29-.14.06-.25.16-.31.3-.15.06-.27.17-.33.32h-.01c-.26.11-.42.34-.42.66v4.6c0,.43.29.71.72.71h4.52c.3,0,.53-.14.63-.37h.01c.16-.06.28-.17.35-.32Z"/>
    <path class="cls-170" d="M204.48,37.02h-4.59c-.27,0-.48.11-.61.3-.07.05-.12.1-.16.17-.08.06-.15.13-.2.21-.09.06-.17.13-.22.23-.11.06-.19.14-.24.25-.12.05-.21.15-.27.27-.13.06-.23.15-.29.28-.14.06-.24.17-.3.3-.15.06-.27.17-.34.32-.27.1-.43.35-.43.67v4.52c0,.43.29.72.72.72h4.59c.3,0,.53-.14.65-.38.15-.06.27-.17.34-.31.15-.07.27-.17.33-.32.14-.06.24-.15.3-.28.12-.05.22-.15.28-.27.11-.05.19-.13.26-.24.09-.06.17-.13.23-.22.09-.06.15-.13.2-.21,0,0,0-.01,0-.01.06-.04.12-.1.16-.16,0-.01.01-.01.02-.02.18-.12.28-.33.28-.59v-4.52c0-.43-.29-.71-.72-.71Z"/>
    <path class="cls-170" d="M204.48,60.91h-4.59c-.27,0-.48.11-.61.3h0c-.07.05-.12.11-.16.17-.08.06-.15.13-.2.21-.09.06-.17.14-.23.24-.1.05-.17.13-.23.23-.12.06-.21.16-.27.28-.13.06-.22.16-.29.28-.14.06-.24.17-.3.3-.15.06-.27.17-.34.32-.27.1-.43.35-.43.67v4.52c0,.34.19.6.48.68-.02.03-.03.06-.05.09-.27.1-.43.34-.43.66v3.03h-2.9c-.27,0-.48.11-.61.3,0,.01-.01.01-.01.01-.05.05-.1.1-.14.15-.09-.28-.33-.46-.67-.46h-4.52c-.26,0-.47.1-.59.28-.01.01-.01.02-.02.02-.06.04-.11.09-.15.15-.1-.28-.35-.45-.68-.45h-4.59c-.27,0-.48.11-.61.3,0,.01-.01.01-.01.01-.05.05-.1.1-.14.15-.09-.28-.33-.46-.67-.46h-4.52c-.26,0-.47.1-.59.28-.01.01-.01.02-.02.02-.07.05-.12.1-.17.17-.08.06-.15.13-.2.22h-.01c-.08.06-.16.14-.21.23-.1.06-.17.13-.23.23-.12.06-.21.16-.27.28-.13.06-.23.16-.29.29-.14.06-.25.16-.3.3-.15.06-.27.16-.33.31h-.01c-.27.1-.43.35-.43.67v4.52c0,.43.29.72.72.72h4.52c.3,0,.53-.14.64-.38h.01s.08-.04.12-.06c.1.27.34.44.66.44h4.6c.3,0,.53-.14.64-.38.04-.02.08-.04.12-.05.1.27.35.43.67.43h4.52c.3,0,.53-.14.64-.38h.01s.08-.04.12-.06c.1.27.34.44.67.44h4.52c.3,0,.53-.14.64-.38.16-.06.28-.17.35-.32.15-.06.26-.16.33-.3.13-.06.24-.16.3-.29.12-.06.22-.15.28-.27.11-.05.19-.13.25-.24.1-.05.17-.13.23-.22.08-.05.15-.12.21-.2.08-.06.15-.13.2-.21.16-.13.26-.32.26-.57v-2.96h2.97c.3,0,.54-.14.64-.37h.01c.15-.06.27-.17.34-.31.15-.07.27-.17.33-.32.14-.06.24-.16.31-.29.11-.05.2-.14.27-.25.11-.06.19-.14.26-.25.1-.06.18-.14.23-.24h.01c.08-.05.14-.11.19-.19.07-.05.12-.1.17-.17,0-.01.01-.01.02-.02.18-.12.28-.33.28-.59v-4.59c0-.33-.17-.58-.45-.68.06-.04.11-.09.15-.15,0-.01.01-.01.02-.02.18-.12.28-.33.28-.59v-4.52c0-.43-.29-.71-.72-.71Z"/>
    <path class="cls-170" d="M193.32,55.25s-.01.01-.01.01c-.05.05-.1.1-.14.15-.09-.28-.33-.46-.67-.46h-4.52c-.26,0-.47.1-.59.28-.01.01-.01.02-.02.02-.06.04-.11.09-.15.15-.1-.28-.35-.45-.68-.45h-4.59c-.27,0-.48.11-.61.3,0,.01-.01.01-.01.01-.05.05-.1.1-.14.15-.09-.28-.33-.46-.67-.46h-4.52c-.26,0-.47.1-.59.28-.01.01-.01.02-.02.02-.07.05-.13.11-.17.18t-.01.01c-.07.05-.13.12-.19.19-.09.07-.16.14-.22.24-.1.06-.18.15-.23.25-.11.05-.2.14-.26.25-.13.07-.24.17-.3.3-.14.06-.24.17-.3.3-.15.06-.27.17-.34.32-.27.1-.43.34-.43.66v4.52c0,.44.29.72.72.72h4.52c.31,0,.55-.14.65-.39.04-.01.08-.03.11-.05h.01c.09.27.34.44.66.44h4.6c.3,0,.53-.14.64-.38.04-.02.08-.03.12-.05.1.27.34.43.67.43h4.52c.31,0,.55-.14.65-.39.04-.01.08-.03.11-.05h0c.09.27.34.44.67.44h4.52c.3,0,.53-.14.64-.38.16-.06.29-.17.36-.32.14-.06.25-.17.32-.3.13-.06.24-.16.3-.29.12-.05.22-.14.28-.26.11-.06.2-.14.26-.25.09-.06.17-.13.22-.22.08-.05.15-.12.21-.2.07-.05.14-.12.19-.19h.01c.16-.14.26-.34.26-.59v-4.52c0-.43-.29-.72-.72-.72h-4.52c-.27,0-.48.11-.61.3Z"/>
  </g>
  <path class="cls-57" d="M199.31,37.59c0-.43.29-.72.72-.72h4.59c.43,0,.72.29.72.72v4.52c0,.43-.29.72-.72.72h-4.59c-.43,0-.72-.29-.72-.72v-4.52ZM199.31,67.43c0-.43.29-.72.72-.72-.43,0-.72-.29-.72-.72v-4.52c0-.43.29-.72.72-.72h4.59c.43,0,.72.29.72.72v4.52c0,.43-.29.72-.72.72.43,0,.72.29.72.72v4.59c0,.43-.29.72-.72.72h-4.59c-.43,0-.72-.29-.72-.72v-4.59ZM169.47,49.5c0-.43.29-.72.72-.72-.43,0-.72-.29-.72-.72v-4.52c0-.43.29-.72.72-.72-.43,0-.72-.29-.72-.72v-4.52c0-.43.29-.72.72-.72h4.52c.43,0,.72.29.72.72v4.52c0,.43-.29.72-.72.72.43,0,.72.29.72.72v4.52c0,.43-.29.72-.72.72.43,0,.72.29.72.72v4.59c0,.43-.29.72-.72.72h-4.52c-.43,0-.72-.29-.72-.72v-4.59ZM169.47,67.43c0-.43.29-.72.72-.72h4.52c.43,0,.72.29.72.72v4.59c0,.43-.29.72-.72.72h-4.52c-.43,0-.72-.29-.72-.72v-4.59ZM181.38,36.15v-.07c0,.43-.29.72-.72.72h-4.52c-.43,0-.72-.29-.72-.72v-4.52c0-.43.29-.72.72-.72h4.52c.43,0,.72.29.72.72,0-.43.29-.72.72-.72h4.59c.43,0,.72.29.72.72,0-.43.29-.72.72-.72h4.52c.43,0,.72.29.72.72,0-.43.29-.72.72-.72h4.52c.43,0,.72.29.72.72v4.59c0,.43-.29.72-.72.72h-4.52c-.43,0-.72-.29-.72-.72,0,.43-.29.72-.72.72h-4.52c-.43,0-.72-.29-.72-.72,0,.43-.29.72-.72.72h-4.59c-.43,0-.72-.29-.72-.72ZM175.42,55.52c0-.43.29-.72.72-.72h4.52c.43,0,.72.29.72.72,0-.43.29-.72.72-.72h4.59c.43,0,.72.29.72.72,0-.43.29-.72.72-.72h4.52c.43,0,.72.29.72.72,0-.43.29-.72.72-.72h4.52c.43,0,.72.29.72.72v4.52c0,.43-.29.72-.72.72h-4.52c-.43,0-.72-.29-.72-.72,0,.43-.29.72-.72.72h-4.52c-.43,0-.72-.29-.72-.72,0,.43-.29.72-.72.72h-4.59c-.43,0-.72-.29-.72-.72,0,.43-.29.72-.72.72h-4.52c-.43,0-.72-.29-.72-.72v-4.52ZM175.42,73.46c0-.43.29-.72.72-.72h4.52c.43,0,.72.29.72.72,0-.43.29-.72.72-.72h4.59c.43,0,.72.29.72.72,0-.43.29-.72.72-.72h4.52c.43,0,.72.29.72.72,0-.43.29-.72.72-.72h4.52c.43,0,.72.29.72.72v4.52c0,.43-.29.72-.72.72h-4.52c-.43,0-.72-.29-.72-.72,0,.43-.29.72-.72.72h-4.52c-.43,0-.72-.29-.72-.72,0,.43-.29.72-.72.72h-4.59c-.43,0-.72-.29-.72-.72,0,.43-.29.72-.72.72h-4.52c-.43,0-.72-.29-.72-.72v-4.52Z"/>
  <path class="cls-61" d="M199.43,37.46c0-.43.29-.72.72-.72h4.59c.43,0,.72.29.72.72v4.52c0,.43-.29.72-.72.72h-4.59c-.43,0-.72-.29-.72-.72v-4.52ZM199.43,67.31c0-.43.29-.72.72-.72-.43,0-.72-.29-.72-.72v-4.52c0-.43.29-.72.72-.72h4.59c.43,0,.72.29.72.72v4.52c0,.43-.29.72-.72.72.43,0,.72.29.72.72v4.59c0,.43-.29.72-.72.72h-4.59c-.43,0-.72-.29-.72-.72v-4.59ZM169.58,49.37c0-.43.29-.72.72-.72-.43,0-.72-.29-.72-.72v-4.52c0-.43.29-.72.72-.72-.43,0-.72-.29-.72-.72v-4.52c0-.43.29-.72.72-.72h4.52c.43,0,.72.29.72.72v4.52c0,.43-.29.72-.72.72.43,0,.72.29.72.72v4.52c0,.43-.29.72-.72.72.43,0,.72.29.72.72v4.59c0,.43-.29.72-.72.72h-4.52c-.43,0-.72-.29-.72-.72v-4.59ZM169.58,67.31c0-.43.29-.72.72-.72h4.52c.43,0,.72.29.72.72v4.59c0,.43-.29.72-.72.72h-4.52c-.43,0-.72-.29-.72-.72v-4.59ZM181.49,36.03v-.07c0,.43-.29.72-.72.72h-4.52c-.43,0-.72-.29-.72-.72v-4.52c0-.43.29-.72.72-.72h4.52c.43,0,.72.29.72.72,0-.43.29-.72.72-.72h4.59c.43,0,.72.29.72.72,0-.43.29-.72.72-.72h4.52c.43,0,.72.29.72.72,0-.43.29-.72.72-.72h4.52c.43,0,.72.29.72.72v4.59c0,.43-.29.72-.72.72h-4.52c-.43,0-.72-.29-.72-.72,0,.43-.29.72-.72.72h-4.52c-.43,0-.72-.29-.72-.72,0,.43-.29.72-.72.72h-4.59c-.43,0-.72-.29-.72-.72ZM175.54,55.4c0-.43.29-.72.72-.72h4.52c.43,0,.72.29.72.72,0-.43.29-.72.72-.72h4.59c.43,0,.72.29.72.72,0-.43.29-.72.72-.72h4.52c.43,0,.72.29.72.72,0-.43.29-.72.72-.72h4.52c.43,0,.72.29.72.72v4.52c0,.43-.29.72-.72.72h-4.52c-.43,0-.72-.29-.72-.72,0,.43-.29.72-.72.72h-4.52c-.43,0-.72-.29-.72-.72,0,.43-.29.72-.72.72h-4.59c-.43,0-.72-.29-.72-.72,0,.43-.29.72-.72.72h-4.52c-.43,0-.72-.29-.72-.72v-4.52ZM175.54,73.34c0-.43.29-.72.72-.72h4.52c.43,0,.72.29.72.72,0-.43.29-.72.72-.72h4.59c.43,0,.72.29.72.72,0-.43.29-.72.72-.72h4.52c.43,0,.72.29.72.72,0-.43.29-.72.72-.72h4.52c.43,0,.72.29.72.72v4.52c0,.43-.29.72-.72.72h-4.52c-.43,0-.72-.29-.72-.72,0,.43-.29.72-.72.72h-4.52c-.43,0-.72-.29-.72-.72,0,.43-.29.72-.72.72h-4.59c-.43,0-.72-.29-.72-.72,0,.43-.29.72-.72.72h-4.52c-.43,0-.72-.29-.72-.72v-4.52Z"/>
  <path class="cls-20" d="M199.52,37.37c0-.43.29-.72.72-.72h4.59c.43,0,.72.29.72.72v4.52c0,.43-.29.72-.72.72h-4.59c-.43,0-.72-.29-.72-.72v-4.52ZM199.52,67.21c0-.43.29-.72.72-.72-.43,0-.72-.29-.72-.72v-4.52c0-.43.29-.72.72-.72h4.59c.43,0,.72.29.72.72v4.52c0,.43-.29.72-.72.72.43,0,.72.29.72.72v4.59c0,.43-.29.72-.72.72h-4.59c-.43,0-.72-.29-.72-.72v-4.59ZM169.67,49.28c0-.43.29-.72.72-.72-.43,0-.72-.29-.72-.72v-4.52c0-.43.29-.72.72-.72-.43,0-.72-.29-.72-.72v-4.52c0-.43.29-.72.72-.72h4.52c.43,0,.72.29.72.72v4.52c0,.43-.29.72-.72.72.43,0,.72.29.72.72v4.52c0,.43-.29.72-.72.72.43,0,.72.29.72.72v4.59c0,.43-.29.72-.72.72h-4.52c-.43,0-.72-.29-.72-.72v-4.59ZM169.67,67.21c0-.43.29-.72.72-.72h4.52c.43,0,.72.29.72.72v4.59c0,.43-.29.72-.72.72h-4.52c-.43,0-.72-.29-.72-.72v-4.59ZM181.58,35.93v-.07c0,.43-.29.72-.72.72h-4.52c-.43,0-.72-.29-.72-.72v-4.52c0-.43.29-.72.72-.72h4.52c.43,0,.72.29.72.72,0-.43.29-.72.72-.72h4.59c.43,0,.72.29.72.72,0-.43.29-.72.72-.72h4.52c.43,0,.72.29.72.72,0-.43.29-.72.72-.72h4.52c.43,0,.72.29.72.72v4.59c0,.43-.29.72-.72.72h-4.52c-.43,0-.72-.29-.72-.72,0,.43-.29.72-.72.72h-4.52c-.43,0-.72-.29-.72-.72,0,.43-.29.72-.72.72h-4.59c-.43,0-.72-.29-.72-.72ZM175.63,55.3c0-.43.29-.72.72-.72h4.52c.43,0,.72.29.72.72,0-.43.29-.72.72-.72h4.59c.43,0,.72.29.72.72,0-.43.29-.72.72-.72h4.52c.43,0,.72.29.72.72,0-.43.29-.72.72-.72h4.52c.43,0,.72.29.72.72v4.52c0,.43-.29.72-.72.72h-4.52c-.43,0-.72-.29-.72-.72,0,.43-.29.72-.72.72h-4.52c-.43,0-.72-.29-.72-.72,0,.43-.29.72-.72.72h-4.59c-.43,0-.72-.29-.72-.72,0,.43-.29.72-.72.72h-4.52c-.43,0-.72-.29-.72-.72v-4.52ZM175.63,73.24c0-.43.29-.72.72-.72h4.52c.43,0,.72.29.72.72,0-.43.29-.72.72-.72h4.59c.43,0,.72.29.72.72,0-.43.29-.72.72-.72h4.52c.43,0,.72.29.72.72,0-.43.29-.72.72-.72h4.52c.43,0,.72.29.72.72v4.52c0,.43-.29.72-.72.72h-4.52c-.43,0-.72-.29-.72-.72,0,.43-.29.72-.72.72h-4.52c-.43,0-.72-.29-.72-.72,0,.43-.29.72-.72.72h-4.59c-.43,0-.72-.29-.72-.72,0,.43-.29.72-.72.72h-4.52c-.43,0-.72-.29-.72-.72v-4.52Z"/>
  <path class="cls-16" d="M199.58,37.3c0-.43.29-.72.72-.72h4.59c.43,0,.72.29.72.72v4.52c0,.43-.29.72-.72.72h-4.59c-.43,0-.72-.29-.72-.72v-4.52ZM199.58,67.14c0-.43.29-.72.72-.72-.43,0-.72-.29-.72-.72v-4.52c0-.43.29-.72.72-.72h4.59c.43,0,.72.29.72.72v4.52c0,.43-.29.72-.72.72.43,0,.72.29.72.72v4.59c0,.43-.29.72-.72.72h-4.59c-.43,0-.72-.29-.72-.72v-4.59ZM169.74,49.21c0-.43.29-.72.72-.72-.43,0-.72-.29-.72-.72v-4.52c0-.43.29-.72.72-.72-.43,0-.72-.29-.72-.72v-4.52c0-.43.29-.72.72-.72h4.52c.43,0,.72.29.72.72v4.52c0,.43-.29.72-.72.72.43,0,.72.29.72.72v4.52c0,.43-.29.72-.72.72.43,0,.72.29.72.72v4.59c0,.43-.29.72-.72.72h-4.52c-.43,0-.72-.29-.72-.72v-4.59ZM169.74,67.14c0-.43.29-.72.72-.72h4.52c.43,0,.72.29.72.72v4.59c0,.43-.29.72-.72.72h-4.52c-.43,0-.72-.29-.72-.72v-4.59ZM181.65,35.86v-.07c0,.43-.29.72-.72.72h-4.52c-.43,0-.72-.29-.72-.72v-4.52c0-.43.29-.72.72-.72h4.52c.43,0,.72.29.72.72,0-.43.29-.72.72-.72h4.59c.43,0,.72.29.72.72,0-.43.29-.72.72-.72h4.52c.43,0,.72.29.72.72,0-.43.29-.72.72-.72h4.52c.43,0,.72.29.72.72v4.59c0,.43-.29.72-.72.72h-4.52c-.43,0-.72-.29-.72-.72,0,.43-.29.72-.72.72h-4.52c-.43,0-.72-.29-.72-.72,0,.43-.29.72-.72.72h-4.59c-.43,0-.72-.29-.72-.72ZM175.69,55.23c0-.43.29-.72.72-.72h4.52c.43,0,.72.29.72.72,0-.43.29-.72.72-.72h4.59c.43,0,.72.29.72.72,0-.43.29-.72.72-.72h4.52c.43,0,.72.29.72.72,0-.43.29-.72.72-.72h4.52c.43,0,.72.29.72.72v4.52c0,.43-.29.72-.72.72h-4.52c-.43,0-.72-.29-.72-.72,0,.43-.29.72-.72.72h-4.52c-.43,0-.72-.29-.72-.72,0,.43-.29.72-.72.72h-4.59c-.43,0-.72-.29-.72-.72,0,.43-.29.72-.72.72h-4.52c-.43,0-.72-.29-.72-.72v-4.52ZM175.69,73.17c0-.43.29-.72.72-.72h4.52c.43,0,.72.29.72.72,0-.43.29-.72.72-.72h4.59c.43,0,.72.29.72.72,0-.43.29-.72.72-.72h4.52c.43,0,.72.29.72.72,0-.43.29-.72.72-.72h4.52c.43,0,.72.29.72.72v4.52c0,.43-.29.72-.72.72h-4.52c-.43,0-.72-.29-.72-.72,0,.43-.29.72-.72.72h-4.52c-.43,0-.72-.29-.72-.72,0,.43-.29.72-.72.72h-4.59c-.43,0-.72-.29-.72-.72,0,.43-.29.72-.72.72h-4.52c-.43,0-.72-.29-.72-.72v-4.52Z"/>
  <path class="cls-48" d="M199.62,37.25c0-.43.29-.72.72-.72h4.59c.43,0,.72.29.72.72v4.52c0,.43-.29.72-.72.72h-4.59c-.43,0-.72-.29-.72-.72v-4.52ZM199.62,67.1c0-.43.29-.72.72-.72-.43,0-.72-.29-.72-.72v-4.52c0-.43.29-.72.72-.72h4.59c.43,0,.72.29.72.72v4.52c0,.43-.29.72-.72.72.43,0,.72.29.72.72v4.59c0,.43-.29.72-.72.72h-4.59c-.43,0-.72-.29-.72-.72v-4.59ZM169.77,49.16c0-.43.29-.72.72-.72-.43,0-.72-.29-.72-.72v-4.52c0-.43.29-.72.72-.72-.43,0-.72-.29-.72-.72v-4.52c0-.43.29-.72.72-.72h4.52c.43,0,.72.29.72.72v4.52c0,.43-.29.72-.72.72.43,0,.72.29.72.72v4.52c0,.43-.29.72-.72.72.43,0,.72.29.72.72v4.59c0,.43-.29.72-.72.72h-4.52c-.43,0-.72-.29-.72-.72v-4.59ZM169.77,67.1c0-.43.29-.72.72-.72h4.52c.43,0,.72.29.72.72v4.59c0,.43-.29.72-.72.72h-4.52c-.43,0-.72-.29-.72-.72v-4.59ZM181.69,35.82v-.07c0,.43-.29.72-.72.72h-4.52c-.43,0-.72-.29-.72-.72v-4.52c0-.43.29-.72.72-.72h4.52c.43,0,.72.29.72.72,0-.43.29-.72.72-.72h4.59c.43,0,.72.29.72.72,0-.43.29-.72.72-.72h4.52c.43,0,.72.29.72.72,0-.43.29-.72.72-.72h4.52c.43,0,.72.29.72.72v4.59c0,.43-.29.72-.72.72h-4.52c-.43,0-.72-.29-.72-.72,0,.43-.29.72-.72.72h-4.52c-.43,0-.72-.29-.72-.72,0,.43-.29.72-.72.72h-4.59c-.43,0-.72-.29-.72-.72ZM175.73,55.19c0-.43.29-.72.72-.72h4.52c.43,0,.72.29.72.72,0-.43.29-.72.72-.72h4.59c.43,0,.72.29.72.72,0-.43.29-.72.72-.72h4.52c.43,0,.72.29.72.72,0-.43.29-.72.72-.72h4.52c.43,0,.72.29.72.72v4.52c0,.43-.29.72-.72.72h-4.52c-.43,0-.72-.29-.72-.72,0,.43-.29.72-.72.72h-4.52c-.43,0-.72-.29-.72-.72,0,.43-.29.72-.72.72h-4.59c-.43,0-.72-.29-.72-.72,0,.43-.29.72-.72.72h-4.52c-.43,0-.72-.29-.72-.72v-4.52ZM175.73,73.13c0-.43.29-.72.72-.72h4.52c.43,0,.72.29.72.72,0-.43.29-.72.72-.72h4.59c.43,0,.72.29.72.72,0-.43.29-.72.72-.72h4.52c.43,0,.72.29.72.72,0-.43.29-.72.72-.72h4.52c.43,0,.72.29.72.72v4.52c0,.43-.29.72-.72.72h-4.52c-.43,0-.72-.29-.72-.72,0,.43-.29.72-.72.72h-4.52c-.43,0-.72-.29-.72-.72,0,.43-.29.72-.72.72h-4.59c-.43,0-.72-.29-.72-.72,0,.43-.29.72-.72.72h-4.52c-.43,0-.72-.29-.72-.72v-4.52Z"/>
  <path class="cls-193" d="M199.63,37.24c0-.43.29-.72.72-.72h4.59c.43,0,.72.29.72.72v4.52c0,.43-.29.72-.72.72h-4.59c-.43,0-.72-.29-.72-.72v-4.52ZM199.63,67.08c0-.43.29-.72.72-.72-.43,0-.72-.29-.72-.72v-4.52c0-.43.29-.72.72-.72h4.59c.43,0,.72.29.72.72v4.52c0,.43-.29.72-.72.72.43,0,.72.29.72.72v4.59c0,.43-.29.72-.72.72h-4.59c-.43,0-.72-.29-.72-.72v-4.59ZM169.79,49.15c0-.43.29-.72.72-.72-.43,0-.72-.29-.72-.72v-4.52c0-.43.29-.72.72-.72-.43,0-.72-.29-.72-.72v-4.52c0-.43.29-.72.72-.72h4.52c.43,0,.72.29.72.72v4.52c0,.43-.29.72-.72.72.43,0,.72.29.72.72v4.52c0,.43-.29.72-.72.72.43,0,.72.29.72.72v4.59c0,.43-.29.72-.72.72h-4.52c-.43,0-.72-.29-.72-.72v-4.59ZM169.79,67.08c0-.43.29-.72.72-.72h4.52c.43,0,.72.29.72.72v4.59c0,.43-.29.72-.72.72h-4.52c-.43,0-.72-.29-.72-.72v-4.59ZM181.7,35.8v-.07c0,.43-.29.72-.72.72h-4.52c-.43,0-.72-.29-.72-.72v-4.52c0-.43.29-.72.72-.72h4.52c.43,0,.72.29.72.72,0-.43.29-.72.72-.72h4.59c.43,0,.72.29.72.72,0-.43.29-.72.72-.72h4.52c.43,0,.72.29.72.72,0-.43.29-.72.72-.72h4.52c.43,0,.72.29.72.72v4.59c0,.43-.29.72-.72.72h-4.52c-.43,0-.72-.29-.72-.72,0,.43-.29.72-.72.72h-4.52c-.43,0-.72-.29-.72-.72,0,.43-.29.72-.72.72h-4.59c-.43,0-.72-.29-.72-.72ZM175.74,55.17c0-.43.29-.72.72-.72h4.52c.43,0,.72.29.72.72,0-.43.29-.72.72-.72h4.59c.43,0,.72.29.72.72,0-.43.29-.72.72-.72h4.52c.43,0,.72.29.72.72,0-.43.29-.72.72-.72h4.52c.43,0,.72.29.72.72v4.52c0,.43-.29.72-.72.72h-4.52c-.43,0-.72-.29-.72-.72,0,.43-.29.72-.72.72h-4.52c-.43,0-.72-.29-.72-.72,0,.43-.29.72-.72.72h-4.59c-.43,0-.72-.29-.72-.72,0,.43-.29.72-.72.72h-4.52c-.43,0-.72-.29-.72-.72v-4.52ZM175.74,73.11c0-.43.29-.72.72-.72h4.52c.43,0,.72.29.72.72,0-.43.29-.72.72-.72h4.59c.43,0,.72.29.72.72,0-.43.29-.72.72-.72h4.52c.43,0,.72.29.72.72,0-.43.29-.72.72-.72h4.52c.43,0,.72.29.72.72v4.52c0,.43-.29.72-.72.72h-4.52c-.43,0-.72-.29-.72-.72,0,.43-.29.72-.72.72h-4.52c-.43,0-.72-.29-.72-.72,0,.43-.29.72-.72.72h-4.59c-.43,0-.72-.29-.72-.72,0,.43-.29.72-.72.72h-4.52c-.43,0-.72-.29-.72-.72v-4.52Z"/>
</svg>